<svg xmlns="http://www.w3.org/2000/svg" xmlns:xlink="http://www.w3.org/1999/xlink" width="533" zoomAndPan="magnify" viewBox="0 0 399.75 161.999997" height="216" preserveAspectRatio="xMidYMid meet" version="1.0"><defs><g/><clipPath id="9735bd8805"><path d="M 0 39.5 L 105.683594 39.5 L 105.683594 144.433594 L 0 144.433594 Z M 0 39.5 " clip-rule="nonzero"/></clipPath><clipPath id="e0b2947c70"><path d="M 103.84375 41.226562 C 102.738281 40.121094 101.230469 39.53125 99.589844 39.582031 L 42.882812 41.078125 C 40.019531 41.15625 37.34375 43.09375 36.226562 45.902344 C 35.277344 48.285156 35.722656 50.800781 37.386719 52.46875 L 44.457031 59.539062 L 23.878906 60.082031 C 21.015625 60.160156 18.339844 62.097656 17.222656 64.90625 C 16.273438 67.289062 16.71875 69.804688 18.386719 71.46875 L 22.863281 75.949219 L 7.609375 76.351562 C 4.746094 76.429688 2.070312 78.367188 0.953125 81.175781 C 0.00390625 83.558594 0.449219 86.074219 2.117188 87.738281 L 57.320312 142.945312 C 58.410156 144.03125 59.859375 144.601562 61.394531 144.601562 C 62.21875 144.601562 63.066406 144.4375 63.898438 144.105469 C 66.703125 142.984375 68.640625 140.308594 68.710938 137.449219 L 69.117188 122.199219 L 73.59375 126.675781 C 74.679688 127.761719 76.128906 128.332031 77.664062 128.332031 C 78.488281 128.332031 79.335938 128.167969 80.167969 127.835938 C 82.972656 126.714844 84.910156 124.039062 84.980469 121.179688 L 85.527344 100.605469 L 92.59375 107.671875 C 93.679688 108.761719 95.128906 109.328125 96.667969 109.328125 C 97.488281 109.328125 98.335938 109.167969 99.167969 108.835938 C 101.976562 107.714844 103.910156 105.039062 103.984375 102.179688 L 105.484375 45.476562 C 105.527344 43.839844 104.945312 42.328125 103.84375 41.226562 Z M 24.277344 67.234375 L 51.4375 66.515625 L 59.890625 74.96875 L 32.730469 75.6875 Z M 78.808594 83.761719 L 61.304688 66.257812 L 79.285156 65.78125 Z M 62.398438 105.351562 L 39.710938 82.667969 L 63.015625 82.050781 Z M 61.558594 137.054688 L 8.007812 83.503906 L 29.84375 82.925781 L 62.136719 115.21875 Z M 77.828125 120.785156 L 69.378906 112.332031 L 70.097656 85.175781 L 78.546875 93.628906 Z M 96.832031 101.78125 L 85.789062 90.738281 L 86.484375 64.476562 C 86.527344 62.839844 85.941406 61.332031 84.839844 60.226562 C 83.734375 59.125 82.21875 58.550781 80.589844 58.582031 L 54.324219 59.277344 L 43.28125 48.230469 L 98.285156 46.78125 Z M 96.832031 101.78125 " clip-rule="nonzero"/></clipPath><linearGradient x1="-1.286999" gradientTransform="matrix(0.356005, 0, 0, 0.356005, 0.462807, 39.578502)" y1="147.501007" x2="295.125" gradientUnits="userSpaceOnUse" y2="147.501007" id="30e2681bcb"><stop stop-opacity="1" stop-color="rgb(37.649536%, 93.728638%, 100%)" offset="0"/><stop stop-opacity="1" stop-color="rgb(37.583923%, 93.739319%, 99.917603%)" offset="0.0078125"/><stop stop-opacity="1" stop-color="rgb(37.3703%, 93.77594%, 99.650574%)" offset="0.015625"/><stop stop-opacity="1" stop-color="rgb(37.07428%, 93.824768%, 99.281311%)" offset="0.0234375"/><stop stop-opacity="1" stop-color="rgb(36.778259%, 93.873596%, 98.912048%)" offset="0.03125"/><stop stop-opacity="1" stop-color="rgb(36.483765%, 93.922424%, 98.542786%)" offset="0.0390625"/><stop stop-opacity="1" stop-color="rgb(36.187744%, 93.972778%, 98.171997%)" offset="0.046875"/><stop stop-opacity="1" stop-color="rgb(35.891724%, 94.021606%, 97.802734%)" offset="0.0546875"/><stop stop-opacity="1" stop-color="rgb(35.597229%, 94.070435%, 97.433472%)" offset="0.0625"/><stop stop-opacity="1" stop-color="rgb(35.301208%, 94.120789%, 97.064209%)" offset="0.0703125"/><stop stop-opacity="1" stop-color="rgb(35.005188%, 94.169617%, 96.694946%)" offset="0.078125"/><stop stop-opacity="1" stop-color="rgb(34.710693%, 94.218445%, 96.325684%)" offset="0.0859375"/><stop stop-opacity="1" stop-color="rgb(34.414673%, 94.267273%, 95.956421%)" offset="0.09375"/><stop stop-opacity="1" stop-color="rgb(34.118652%, 94.317627%, 95.587158%)" offset="0.101563"/><stop stop-opacity="1" stop-color="rgb(33.824158%, 94.366455%, 95.217896%)" offset="0.109375"/><stop stop-opacity="1" stop-color="rgb(33.528137%, 94.415283%, 94.848633%)" offset="0.117188"/><stop stop-opacity="1" stop-color="rgb(33.232117%, 94.464111%, 94.47937%)" offset="0.125"/><stop stop-opacity="1" stop-color="rgb(32.937622%, 94.514465%, 94.108582%)" offset="0.132813"/><stop stop-opacity="1" stop-color="rgb(32.641602%, 94.563293%, 93.739319%)" offset="0.140625"/><stop stop-opacity="1" stop-color="rgb(32.345581%, 94.612122%, 93.370056%)" offset="0.148438"/><stop stop-opacity="1" stop-color="rgb(32.049561%, 94.66095%, 93.000793%)" offset="0.15625"/><stop stop-opacity="1" stop-color="rgb(31.755066%, 94.711304%, 92.631531%)" offset="0.164063"/><stop stop-opacity="1" stop-color="rgb(31.459045%, 94.760132%, 92.262268%)" offset="0.171875"/><stop stop-opacity="1" stop-color="rgb(31.163025%, 94.80896%, 91.893005%)" offset="0.179688"/><stop stop-opacity="1" stop-color="rgb(30.86853%, 94.857788%, 91.523743%)" offset="0.1875"/><stop stop-opacity="1" stop-color="rgb(30.57251%, 94.908142%, 91.15448%)" offset="0.195313"/><stop stop-opacity="1" stop-color="rgb(30.276489%, 94.95697%, 90.785217%)" offset="0.203125"/><stop stop-opacity="1" stop-color="rgb(29.981995%, 95.005798%, 90.415955%)" offset="0.210938"/><stop stop-opacity="1" stop-color="rgb(29.685974%, 95.054626%, 90.045166%)" offset="0.21875"/><stop stop-opacity="1" stop-color="rgb(29.389954%, 95.10498%, 89.675903%)" offset="0.226562"/><stop stop-opacity="1" stop-color="rgb(29.095459%, 95.153809%, 89.306641%)" offset="0.234375"/><stop stop-opacity="1" stop-color="rgb(28.799438%, 95.202637%, 88.937378%)" offset="0.242188"/><stop stop-opacity="1" stop-color="rgb(28.503418%, 95.251465%, 88.568115%)" offset="0.25"/><stop stop-opacity="1" stop-color="rgb(28.208923%, 95.301819%, 88.198853%)" offset="0.257812"/><stop stop-opacity="1" stop-color="rgb(27.912903%, 95.350647%, 87.82959%)" offset="0.265625"/><stop stop-opacity="1" stop-color="rgb(27.616882%, 95.399475%, 87.460327%)" offset="0.273438"/><stop stop-opacity="1" stop-color="rgb(27.322388%, 95.448303%, 87.091064%)" offset="0.28125"/><stop stop-opacity="1" stop-color="rgb(27.026367%, 95.498657%, 86.721802%)" offset="0.289062"/><stop stop-opacity="1" stop-color="rgb(26.730347%, 95.547485%, 86.352539%)" offset="0.296875"/><stop stop-opacity="1" stop-color="rgb(26.434326%, 95.596313%, 85.98175%)" offset="0.304688"/><stop stop-opacity="1" stop-color="rgb(26.139832%, 95.645142%, 85.612488%)" offset="0.3125"/><stop stop-opacity="1" stop-color="rgb(25.843811%, 95.695496%, 85.243225%)" offset="0.320313"/><stop stop-opacity="1" stop-color="rgb(25.547791%, 95.744324%, 84.873962%)" offset="0.328125"/><stop stop-opacity="1" stop-color="rgb(25.253296%, 95.793152%, 84.5047%)" offset="0.335938"/><stop stop-opacity="1" stop-color="rgb(24.957275%, 95.84198%, 84.135437%)" offset="0.34375"/><stop stop-opacity="1" stop-color="rgb(24.661255%, 95.892334%, 83.766174%)" offset="0.351563"/><stop stop-opacity="1" stop-color="rgb(24.36676%, 95.941162%, 83.396912%)" offset="0.359375"/><stop stop-opacity="1" stop-color="rgb(24.07074%, 95.98999%, 83.027649%)" offset="0.367188"/><stop stop-opacity="1" stop-color="rgb(23.774719%, 96.038818%, 82.658386%)" offset="0.375"/><stop stop-opacity="1" stop-color="rgb(23.480225%, 96.089172%, 82.289124%)" offset="0.382813"/><stop stop-opacity="1" stop-color="rgb(23.184204%, 96.138%, 81.918335%)" offset="0.390625"/><stop stop-opacity="1" stop-color="rgb(22.888184%, 96.186829%, 81.549072%)" offset="0.398438"/><stop stop-opacity="1" stop-color="rgb(22.593689%, 96.235657%, 81.17981%)" offset="0.40625"/><stop stop-opacity="1" stop-color="rgb(22.297668%, 96.286011%, 80.810547%)" offset="0.414063"/><stop stop-opacity="1" stop-color="rgb(22.001648%, 96.334839%, 80.441284%)" offset="0.421875"/><stop stop-opacity="1" stop-color="rgb(21.707153%, 96.383667%, 80.072021%)" offset="0.429688"/><stop stop-opacity="1" stop-color="rgb(21.411133%, 96.432495%, 79.702759%)" offset="0.4375"/><stop stop-opacity="1" stop-color="rgb(21.115112%, 96.482849%, 79.333496%)" offset="0.445313"/><stop stop-opacity="1" stop-color="rgb(20.819092%, 96.531677%, 78.964233%)" offset="0.453125"/><stop stop-opacity="1" stop-color="rgb(20.524597%, 96.580505%, 78.594971%)" offset="0.460938"/><stop stop-opacity="1" stop-color="rgb(20.228577%, 96.630859%, 78.225708%)" offset="0.46875"/><stop stop-opacity="1" stop-color="rgb(19.932556%, 96.679688%, 77.854919%)" offset="0.476563"/><stop stop-opacity="1" stop-color="rgb(19.638062%, 96.728516%, 77.485657%)" offset="0.484375"/><stop stop-opacity="1" stop-color="rgb(19.342041%, 96.777344%, 77.116394%)" offset="0.492188"/><stop stop-opacity="1" stop-color="rgb(19.046021%, 96.827698%, 76.747131%)" offset="0.5"/><stop stop-opacity="1" stop-color="rgb(18.751526%, 96.876526%, 76.377869%)" offset="0.507813"/><stop stop-opacity="1" stop-color="rgb(18.455505%, 96.925354%, 76.008606%)" offset="0.515625"/><stop stop-opacity="1" stop-color="rgb(18.159485%, 96.974182%, 75.639343%)" offset="0.523438"/><stop stop-opacity="1" stop-color="rgb(17.86499%, 97.024536%, 75.270081%)" offset="0.53125"/><stop stop-opacity="1" stop-color="rgb(17.56897%, 97.073364%, 74.900818%)" offset="0.539062"/><stop stop-opacity="1" stop-color="rgb(17.272949%, 97.122192%, 74.531555%)" offset="0.546875"/><stop stop-opacity="1" stop-color="rgb(16.978455%, 97.171021%, 74.160767%)" offset="0.554688"/><stop stop-opacity="1" stop-color="rgb(16.682434%, 97.221375%, 73.791504%)" offset="0.5625"/><stop stop-opacity="1" stop-color="rgb(16.386414%, 97.270203%, 73.422241%)" offset="0.570312"/><stop stop-opacity="1" stop-color="rgb(16.091919%, 97.319031%, 73.052979%)" offset="0.578125"/><stop stop-opacity="1" stop-color="rgb(15.795898%, 97.367859%, 72.683716%)" offset="0.585938"/><stop stop-opacity="1" stop-color="rgb(15.499878%, 97.418213%, 72.314453%)" offset="0.59375"/><stop stop-opacity="1" stop-color="rgb(15.203857%, 97.467041%, 71.94519%)" offset="0.601562"/><stop stop-opacity="1" stop-color="rgb(14.909363%, 97.515869%, 71.575928%)" offset="0.609375"/><stop stop-opacity="1" stop-color="rgb(14.613342%, 97.564697%, 71.206665%)" offset="0.617188"/><stop stop-opacity="1" stop-color="rgb(14.317322%, 97.615051%, 70.837402%)" offset="0.625"/><stop stop-opacity="1" stop-color="rgb(14.022827%, 97.663879%, 70.46814%)" offset="0.632813"/><stop stop-opacity="1" stop-color="rgb(13.726807%, 97.712708%, 70.097351%)" offset="0.640625"/><stop stop-opacity="1" stop-color="rgb(13.430786%, 97.761536%, 69.728088%)" offset="0.648438"/><stop stop-opacity="1" stop-color="rgb(13.136292%, 97.81189%, 69.358826%)" offset="0.65625"/><stop stop-opacity="1" stop-color="rgb(12.840271%, 97.860718%, 68.989563%)" offset="0.664062"/><stop stop-opacity="1" stop-color="rgb(12.54425%, 97.909546%, 68.6203%)" offset="0.671875"/><stop stop-opacity="1" stop-color="rgb(12.249756%, 97.958374%, 68.251038%)" offset="0.679688"/><stop stop-opacity="1" stop-color="rgb(11.953735%, 98.008728%, 67.881775%)" offset="0.6875"/><stop stop-opacity="1" stop-color="rgb(11.657715%, 98.057556%, 67.512512%)" offset="0.695312"/><stop stop-opacity="1" stop-color="rgb(11.36322%, 98.106384%, 67.14325%)" offset="0.703125"/><stop stop-opacity="1" stop-color="rgb(11.0672%, 98.155212%, 66.773987%)" offset="0.710938"/><stop stop-opacity="1" stop-color="rgb(10.771179%, 98.205566%, 66.404724%)" offset="0.71875"/><stop stop-opacity="1" stop-color="rgb(10.476685%, 98.254395%, 66.033936%)" offset="0.726563"/><stop stop-opacity="1" stop-color="rgb(10.180664%, 98.303223%, 65.664673%)" offset="0.734375"/><stop stop-opacity="1" stop-color="rgb(9.884644%, 98.352051%, 65.29541%)" offset="0.742188"/><stop stop-opacity="1" stop-color="rgb(9.588623%, 98.402405%, 64.926147%)" offset="0.75"/><stop stop-opacity="1" stop-color="rgb(9.294128%, 98.451233%, 64.556885%)" offset="0.757813"/><stop stop-opacity="1" stop-color="rgb(8.998108%, 98.500061%, 64.187622%)" offset="0.765625"/><stop stop-opacity="1" stop-color="rgb(8.702087%, 98.548889%, 63.818359%)" offset="0.773438"/><stop stop-opacity="1" stop-color="rgb(8.407593%, 98.599243%, 63.449097%)" offset="0.78125"/><stop stop-opacity="1" stop-color="rgb(8.111572%, 98.648071%, 63.079834%)" offset="0.789063"/><stop stop-opacity="1" stop-color="rgb(7.815552%, 98.696899%, 62.710571%)" offset="0.796875"/><stop stop-opacity="1" stop-color="rgb(7.521057%, 98.745728%, 62.341309%)" offset="0.804688"/><stop stop-opacity="1" stop-color="rgb(7.225037%, 98.796082%, 61.97052%)" offset="0.8125"/><stop stop-opacity="1" stop-color="rgb(6.929016%, 98.84491%, 61.601257%)" offset="0.820312"/><stop stop-opacity="1" stop-color="rgb(6.634521%, 98.893738%, 61.231995%)" offset="0.828125"/><stop stop-opacity="1" stop-color="rgb(6.338501%, 98.942566%, 60.862732%)" offset="0.835938"/><stop stop-opacity="1" stop-color="rgb(6.04248%, 98.99292%, 60.493469%)" offset="0.84375"/><stop stop-opacity="1" stop-color="rgb(5.747986%, 99.041748%, 60.124207%)" offset="0.851563"/><stop stop-opacity="1" stop-color="rgb(5.451965%, 99.090576%, 59.754944%)" offset="0.859375"/><stop stop-opacity="1" stop-color="rgb(5.155945%, 99.14093%, 59.385681%)" offset="0.867188"/><stop stop-opacity="1" stop-color="rgb(4.86145%, 99.189758%, 59.016418%)" offset="0.875"/><stop stop-opacity="1" stop-color="rgb(4.56543%, 99.238586%, 58.647156%)" offset="0.882813"/><stop stop-opacity="1" stop-color="rgb(4.269409%, 99.287415%, 58.277893%)" offset="0.890625"/><stop stop-opacity="1" stop-color="rgb(3.973389%, 99.337769%, 57.907104%)" offset="0.898438"/><stop stop-opacity="1" stop-color="rgb(3.678894%, 99.386597%, 57.537842%)" offset="0.90625"/><stop stop-opacity="1" stop-color="rgb(3.382874%, 99.435425%, 57.168579%)" offset="0.914063"/><stop stop-opacity="1" stop-color="rgb(3.086853%, 99.484253%, 56.799316%)" offset="0.921875"/><stop stop-opacity="1" stop-color="rgb(2.792358%, 99.534607%, 56.430054%)" offset="0.929688"/><stop stop-opacity="1" stop-color="rgb(2.496338%, 99.583435%, 56.060791%)" offset="0.9375"/><stop stop-opacity="1" stop-color="rgb(2.200317%, 99.632263%, 55.691528%)" offset="0.945313"/><stop stop-opacity="1" stop-color="rgb(1.905823%, 99.681091%, 55.322266%)" offset="0.953125"/><stop stop-opacity="1" stop-color="rgb(1.609802%, 99.731445%, 54.953003%)" offset="0.960938"/><stop stop-opacity="1" stop-color="rgb(1.313782%, 99.780273%, 54.58374%)" offset="0.96875"/><stop stop-opacity="1" stop-color="rgb(1.019287%, 99.829102%, 54.214478%)" offset="0.976563"/><stop stop-opacity="1" stop-color="rgb(0.723267%, 99.87793%, 53.843689%)" offset="0.984375"/><stop stop-opacity="1" stop-color="rgb(0.427246%, 99.928284%, 53.474426%)" offset="0.992188"/><stop stop-opacity="1" stop-color="rgb(0.140381%, 99.975586%, 53.114319%)" offset="1"/></linearGradient><clipPath id="ae7ca62df6"><rect x="0" width="253" y="0" height="113"/></clipPath><clipPath id="0b7b0dcaf6"><rect x="0" width="184" y="0" height="27"/></clipPath></defs><g clip-path="url(#9735bd8805)"><g clip-path="url(#e0b2947c70)"><path fill="url(#30e2681bcb)" d="M 0.00390625 39.53125 L 0.00390625 144.433594 L 105.527344 144.433594 L 105.527344 39.53125 Z M 0.00390625 39.53125 " fill-rule="nonzero"/></g></g><g transform="matrix(1, 0, 0, 1, 121, 18)"><g clip-path="url(#ae7ca62df6)"><g fill="#000000" fill-opacity="1"><g transform="translate(6.418345, 88.619608)"><g><path d="M -4.296875 -0.398438 L 11.011719 -66.765625 L 11.289062 -68.082031 L 22.09375 -68.082031 L 22.296875 -66.582031 L 26.40625 -32.710938 L 25.640625 -32.617188 L 24.882812 -32.765625 L 27.261719 -44.996094 L 32.28125 -66.765625 L 32.554688 -68.082031 L 45.160156 -68.082031 L 44.683594 -65.96875 L 29.371094 0.398438 L 29.097656 1.714844 L 19.046875 1.714844 L 18.84375 0.21875 L 14.617188 -35.089844 L 15.386719 -35.179688 L 16.140625 -35.03125 L 13.839844 -23.441406 L 8.332031 0.398438 L 8.054688 1.714844 L -4.773438 1.714844 L -4.296875 -0.394531 Z M -2.792969 -0.0546875 L -3.054688 1.113281 L -3.808594 0.941406 L -3.808594 0.171875 L 7.429688 0.171875 L 7.429688 0.941406 L 6.671875 0.785156 L 6.828125 0.0507812 L 12.332031 -23.777344 L 13.085938 -23.605469 L 12.328125 -23.753906 L 14.628906 -35.332031 L 16.152344 -35.273438 L 20.375 0.0078125 L 20.488281 0.839844 L 19.722656 0.941406 L 19.722656 0.171875 L 28.46875 0.171875 L 28.46875 0.941406 L 27.714844 0.785156 L 27.867188 0.0507812 L 43.175781 -66.308594 L 43.441406 -67.480469 L 44.195312 -67.308594 L 44.195312 -66.535156 L 33.183594 -66.535156 L 33.183594 -67.308594 L 33.9375 -67.148438 L 33.785156 -66.417969 L 28.769531 -44.660156 L 28.015625 -44.835938 L 28.773438 -44.6875 L 26.398438 -32.46875 L 24.875 -32.523438 L 20.765625 -66.375 L 20.652344 -67.203125 L 21.417969 -67.308594 L 21.417969 -66.535156 L 11.914062 -66.535156 L 11.914062 -67.308594 L 12.671875 -67.148438 L 12.515625 -66.417969 L -2.792969 -0.0507812 Z M -2.792969 -0.0546875 "/></g></g></g><g fill="#000000" fill-opacity="1"><g transform="translate(46.727644, 88.619608)"><g><path d="M -4.296875 -0.398438 L 11.011719 -66.765625 L 11.289062 -68.082031 L 37.050781 -68.082031 L 36.574219 -65.96875 L 34.578125 -57.257812 L 34.300781 -55.941406 L 21.53125 -55.941406 L 21.53125 -56.710938 L 22.285156 -56.539062 L 18.25 -39.117188 L 17.496094 -39.292969 L 17.496094 -40.0625 L 30.070312 -40.0625 L 29.519531 -37.929688 L 28.769531 -38.121094 L 29.523438 -37.945312 L 27.523438 -29.425781 L 26.773438 -29.601562 L 27.527344 -29.441406 L 27.25 -28.113281 L 15.082031 -28.113281 L 15.082031 -28.882812 L 15.835938 -28.710938 L 11.386719 -9.480469 L 10.632812 -9.652344 L 10.632812 -10.425781 L 24.195312 -10.425781 L 23.71875 -8.3125 L 21.71875 0.398438 L 21.441406 1.714844 L -4.773438 1.714844 L -4.296875 -0.394531 Z M -2.792969 -0.0546875 L -3.054688 1.113281 L -3.808594 0.941406 L -3.808594 0.171875 L 20.816406 0.171875 L 20.816406 0.941406 L 20.058594 0.785156 L 20.210938 0.0546875 L 22.210938 -8.65625 L 22.476562 -9.824219 L 23.226562 -9.652344 L 23.226562 -8.878906 L 9.664062 -8.878906 L 14.46875 -29.65625 L 26.621094 -29.65625 L 26.621094 -28.882812 L 25.867188 -29.042969 L 26.019531 -29.769531 L 28.019531 -38.308594 L 28.324219 -39.484375 L 29.074219 -39.292969 L 29.074219 -38.519531 L 16.523438 -38.519531 L 20.917969 -57.484375 L 33.671875 -57.484375 L 33.671875 -56.710938 L 32.917969 -56.871094 L 33.070312 -57.601562 L 35.070312 -66.308594 L 35.332031 -67.480469 L 36.085938 -67.308594 L 36.085938 -66.535156 L 11.914062 -66.535156 L 11.914062 -67.308594 L 12.671875 -67.148438 L 12.515625 -66.417969 L -2.792969 -0.0507812 Z M -2.792969 -0.0546875 "/></g></g></g><g fill="#000000" fill-opacity="1"><g transform="translate(77.496942, 88.619608)"><g><path d="M 13.976562 0.152344 L 12.277344 -16.96875 L 13.046875 -17.042969 L 13.738281 -16.699219 L 4.988281 0.761719 L 4.511719 1.714844 L -9.125 1.714844 L -7.808594 -0.773438 L 10.476562 -36.140625 L 11.160156 -35.785156 L 10.394531 -35.707031 L 7.339844 -66.214844 L 7.132812 -68.082031 L 19.144531 -68.082031 L 19.285156 -66.550781 L 20.980469 -50.042969 L 20.210938 -49.964844 L 19.519531 -50.308594 L 27.96875 -67.128906 L 28.445312 -68.082031 L 41.761719 -68.082031 L 40.46875 -65.558594 L 22.742188 -31.84375 L 22.058594 -32.203125 L 22.828125 -32.28125 L 26.144531 -0.191406 L 26.351562 1.714844 L 14.109375 1.714844 L 13.972656 0.140625 Z M 15.511719 0.0078125 L 15.589844 0.875 L 14.820312 0.941406 L 14.820312 0.171875 L 25.492188 0.171875 L 25.492188 0.941406 L 24.722656 1.023438 L 24.609375 -0.0351562 L 21.265625 -32.355469 L 39.09375 -66.265625 L 39.8125 -67.660156 L 40.5 -67.308594 L 40.5 -66.535156 L 28.921875 -66.535156 L 28.921875 -67.308594 L 29.613281 -66.964844 L 29.347656 -66.433594 L 19.714844 -47.25 L 17.746094 -66.410156 L 17.671875 -67.238281 L 18.4375 -67.308594 L 18.4375 -66.535156 L 7.992188 -66.535156 L 7.992188 -67.308594 L 8.761719 -67.394531 L 8.875 -66.367188 L 11.953125 -35.632812 L -6.445312 -0.0546875 L -7.160156 1.304688 L -7.84375 0.941406 L -7.84375 0.171875 L 4.035156 0.171875 L 4.035156 0.941406 L 3.34375 0.597656 L 3.609375 0.0703125 L 13.550781 -19.777344 L 15.511719 0 Z M 15.511719 0.0078125 "/></g></g></g><g fill="#000000" fill-opacity="1"><g transform="translate(110.64182, 88.619608)"><g><path d="M -3.921875 -0.398438 L 11.390625 -66.765625 L 11.667969 -68.082031 L 25.289062 -68.082031 L 24.8125 -65.96875 L 9.5 0.398438 L 9.222656 1.714844 L -4.398438 1.714844 L -3.921875 -0.394531 Z M -2.414062 -0.0546875 L -2.679688 1.113281 L -3.429688 0.941406 L -3.429688 0.171875 L 8.597656 0.171875 L 8.597656 0.941406 L 7.839844 0.785156 L 7.996094 0.0507812 L 23.304688 -66.308594 L 23.566406 -67.480469 L 24.320312 -67.308594 L 24.320312 -66.535156 L 12.292969 -66.535156 L 12.292969 -67.308594 L 13.046875 -67.148438 L 12.894531 -66.417969 L -2.414062 -0.0507812 Z M -2.414062 -0.0546875 "/></g></g></g><g fill="#000000" fill-opacity="1"><g transform="translate(131.456345, 88.619608)"><g><path d="M -4.296875 -0.398438 L 11.011719 -66.765625 L 11.289062 -68.082031 L 24.910156 -68.082031 L 24.433594 -65.96875 L 18.511719 -40.285156 L 17.761719 -40.460938 L 17.761719 -41.234375 L 24.886719 -41.234375 L 24.886719 -40.460938 L 24.132812 -40.632812 L 30.167969 -66.765625 L 30.445312 -68.082031 L 44.066406 -68.082031 L 43.589844 -65.96875 L 28.28125 0.398438 L 28.003906 1.714844 L 14.382812 1.714844 L 14.859375 -0.394531 L 21.722656 -30.078125 L 22.472656 -29.902344 L 22.472656 -29.128906 L 15.347656 -29.128906 L 15.347656 -29.902344 L 16.097656 -29.726562 L 9.125 0.402344 L 8.847656 1.714844 L -4.773438 1.714844 L -4.296875 -0.394531 Z M -2.792969 -0.0546875 L -3.054688 1.113281 L -3.808594 0.941406 L -3.808594 0.171875 L 8.21875 0.171875 L 8.21875 0.941406 L 7.464844 0.785156 L 7.617188 0.0507812 L 14.734375 -30.675781 L 23.445312 -30.675781 L 16.363281 -0.0546875 L 16.101562 1.113281 L 15.347656 0.941406 L 15.347656 0.171875 L 27.375 0.171875 L 27.375 0.941406 L 26.621094 0.785156 L 26.773438 0.0507812 L 42.082031 -66.308594 L 42.347656 -67.480469 L 43.101562 -67.308594 L 43.101562 -66.535156 L 31.070312 -66.535156 L 31.070312 -67.308594 L 31.828125 -67.148438 L 31.671875 -66.417969 L 25.5 -39.6875 L 16.789062 -39.6875 L 22.925781 -66.308594 L 23.191406 -67.480469 L 23.945312 -67.308594 L 23.945312 -66.535156 L 11.914062 -66.535156 L 11.914062 -67.308594 L 12.671875 -67.148438 L 12.515625 -66.417969 L -2.792969 -0.0507812 Z M -2.792969 -0.0546875 "/></g></g></g><g fill="#000000" fill-opacity="1"><g transform="translate(170.672116, 88.619608)"><g><path d="M 24.859375 -2.347656 C 21.542969 0.863281 17.089844 2.46875 11.5 2.46875 C 5.71875 2.46875 1.851562 0.730469 -0.109375 -2.75 C -1.992188 -6.011719 -2.179688 -10.910156 -0.675781 -17.445312 L 10.75 -66.804688 L 11.023438 -68.117188 L 24.648438 -68.117188 L 24.171875 -66.007812 L 12.820312 -16.832031 C 12.667969 -16.183594 12.53125 -15.558594 12.410156 -14.949219 C 12.285156 -14.339844 12.183594 -13.820312 12.113281 -13.386719 C 12.039062 -12.957031 11.976562 -12.558594 11.925781 -12.191406 C 11.882812 -11.847656 11.859375 -11.605469 11.859375 -11.464844 L 11.859375 -11.046875 L 11.085938 -11.046875 L 11.839844 -11.214844 C 11.886719 -11.007812 11.9375 -10.804688 11.996094 -10.605469 C 12.054688 -10.417969 12.113281 -10.238281 12.179688 -10.070312 C 12.242188 -9.917969 12.316406 -9.765625 12.398438 -9.621094 L 12.5 -9.445312 L 12.5 -9.238281 C 12.5 -9.4375 12.433594 -9.605469 12.304688 -9.734375 L 12.308594 -9.734375 C 12.289062 -9.75 12.269531 -9.757812 12.257812 -9.765625 C 12.269531 -9.761719 12.285156 -9.753906 12.308594 -9.746094 C 12.378906 -9.722656 12.476562 -9.699219 12.601562 -9.675781 C 12.851562 -9.621094 13.164062 -9.597656 13.539062 -9.597656 C 14.503906 -9.597656 15.242188 -9.847656 15.742188 -10.351562 C 16.074219 -10.679688 16.359375 -11.054688 16.601562 -11.472656 C 16.851562 -11.902344 17.054688 -12.367188 17.214844 -12.867188 C 17.636719 -14.109375 18.082031 -15.703125 18.554688 -17.640625 L 29.902344 -66.804688 L 30.179688 -68.117188 L 43.800781 -68.117188 L 43.324219 -66.007812 L 31.898438 -16.644531 C 30.433594 -10.210938 28.085938 -5.445312 24.855469 -2.347656 Z M 23.785156 -3.460938 C 26.792969 -6.34375 28.996094 -10.855469 30.394531 -16.992188 L 41.820312 -66.347656 L 42.082031 -67.515625 L 42.835938 -67.347656 L 42.835938 -66.574219 L 30.808594 -66.574219 L 30.808594 -67.347656 L 31.5625 -67.1875 L 31.410156 -66.457031 L 20.058594 -17.277344 C 19.574219 -15.292969 19.117188 -13.667969 18.683594 -12.398438 C 18.492188 -11.792969 18.242188 -11.226562 17.9375 -10.699219 C 17.628906 -10.164062 17.261719 -9.683594 16.835938 -9.257812 C 16.03125 -8.453125 14.933594 -8.050781 13.539062 -8.050781 C 13.058594 -8.050781 12.640625 -8.089844 12.285156 -8.160156 C 11.878906 -8.246094 11.585938 -8.351562 11.410156 -8.476562 C 11.105469 -8.695312 10.953125 -8.949219 10.953125 -9.238281 L 11.726562 -9.238281 L 11.054688 -8.855469 C 10.9375 -9.0625 10.835938 -9.277344 10.746094 -9.5 C 10.660156 -9.710938 10.585938 -9.933594 10.515625 -10.171875 C 10.445312 -10.402344 10.386719 -10.636719 10.332031 -10.878906 L 10.3125 -10.964844 L 10.3125 -11.464844 C 10.3125 -11.671875 10.339844 -11.984375 10.394531 -12.394531 C 10.449219 -12.78125 10.511719 -13.199219 10.589844 -13.648438 C 10.664062 -14.097656 10.769531 -14.632812 10.894531 -15.257812 C 11.023438 -15.878906 11.160156 -16.519531 11.3125 -17.179688 L 22.664062 -66.347656 L 22.925781 -67.515625 L 23.679688 -67.347656 L 23.679688 -66.574219 L 11.652344 -66.574219 L 11.652344 -67.347656 L 12.40625 -67.1875 L 12.253906 -66.457031 L 0.828125 -17.097656 C -0.585938 -10.960938 -0.449219 -6.429688 1.238281 -3.507812 C 2.902344 -0.554688 6.320312 0.925781 11.5 0.925781 C 16.671875 0.925781 20.765625 -0.535156 23.785156 -3.457031 Z M 23.785156 -3.460938 "/></g></g></g><g fill="#000000" fill-opacity="1"><g transform="translate(209.133739, 88.619608)"><g><path d="M 38.800781 -48.921875 C 37.269531 -42.25 34.585938 -37.761719 30.753906 -35.460938 L 30.355469 -36.125 L 30.800781 -36.753906 C 34.527344 -34.117188 35.398438 -28.566406 33.40625 -20.109375 L 33.03125 -18.421875 C 32.214844 -14.96875 31.207031 -11.980469 30.015625 -9.457031 C 28.808594 -6.898438 27.394531 -4.808594 25.773438 -3.1875 C 22.476562 0.0820312 18.023438 1.714844 12.40625 1.714844 L -4.398438 1.714844 L -3.921875 -0.394531 L 11.390625 -66.765625 L 11.667969 -68.082031 L 27.414062 -68.082031 C 32.96875 -68.082031 36.6875 -66.671875 38.574219 -63.855469 C 40.382812 -61.15625 40.609375 -56.867188 39.253906 -50.996094 L 38.800781 -48.929688 Z M 37.292969 -49.261719 L 37.746094 -51.34375 C 39.003906 -56.78125 38.851562 -60.667969 37.292969 -62.996094 C 35.710938 -65.355469 32.417969 -66.535156 27.414062 -66.535156 L 12.292969 -66.535156 L 12.292969 -67.308594 L 13.046875 -67.148438 L 12.894531 -66.417969 L -2.414062 -0.0546875 L -2.679688 1.113281 L -3.429688 0.941406 L -3.429688 0.171875 L 12.40625 0.171875 C 17.597656 0.171875 21.691406 -1.3125 24.679688 -4.277344 C 26.175781 -5.773438 27.488281 -7.71875 28.621094 -10.113281 C 29.765625 -12.542969 30.734375 -15.421875 31.523438 -18.757812 L 31.902344 -20.464844 C 33.734375 -28.246094 33.070312 -33.253906 29.910156 -35.492188 L 28.941406 -36.175781 L 29.957031 -36.785156 C 33.414062 -38.859375 35.859375 -43.019531 37.292969 -49.269531 Z M 10.820312 -9.558594 L 13.234375 -9.558594 C 14.699219 -9.558594 15.816406 -10.039062 16.59375 -11.003906 C 17.550781 -12.171875 18.417969 -14.421875 19.195312 -17.746094 L 20.441406 -23.101562 C 21.140625 -26.199219 21.355469 -28.316406 21.082031 -29.457031 C 21.023438 -29.710938 20.910156 -29.894531 20.738281 -30.007812 C 20.511719 -30.152344 20.085938 -30.222656 19.457031 -30.222656 L 15.949219 -30.222656 L 15.949219 -30.996094 L 16.703125 -30.820312 L 11.574219 -8.613281 L 10.820312 -8.785156 Z M 9.851562 -8.011719 L 15.335938 -31.769531 L 19.457031 -31.769531 C 20.386719 -31.769531 21.09375 -31.613281 21.570312 -31.304688 C 22.101562 -30.964844 22.4375 -30.46875 22.582031 -29.820312 C 22.914062 -28.445312 22.699219 -26.089844 21.945312 -22.75 L 20.699219 -17.394531 C 19.867188 -13.835938 18.898438 -11.382812 17.796875 -10.035156 C 16.710938 -8.6875 15.191406 -8.011719 13.234375 -8.011719 Z M 18.136719 -41.234375 L 20.703125 -41.234375 C 21.84375 -41.234375 22.636719 -41.550781 23.085938 -42.1875 C 23.757812 -43.113281 24.472656 -45.1875 25.230469 -48.40625 L 26.132812 -52.359375 C 26.386719 -53.484375 26.53125 -54.398438 26.566406 -55.101562 C 26.597656 -55.699219 26.554688 -56.09375 26.441406 -56.289062 L 26.433594 -56.304688 C 26.378906 -56.40625 26.246094 -56.496094 26.039062 -56.566406 C 25.722656 -56.675781 25.289062 -56.730469 24.738281 -56.730469 L 22.097656 -56.730469 L 22.097656 -57.503906 L 22.847656 -57.328125 L 18.890625 -40.285156 L 18.136719 -40.460938 Z M 17.164062 -39.6875 L 21.484375 -58.277344 L 24.738281 -58.277344 C 26.324219 -58.277344 27.34375 -57.867188 27.789062 -57.042969 L 27.113281 -56.675781 L 27.78125 -57.0625 C 28.046875 -56.601562 28.15625 -55.921875 28.109375 -55.023438 C 28.070312 -54.230469 27.914062 -53.230469 27.636719 -52.015625 L 26.734375 -48.050781 C 25.929688 -44.632812 25.136719 -42.382812 24.347656 -41.296875 C 23.59375 -40.222656 22.375 -39.6875 20.703125 -39.6875 Z M 17.164062 -39.6875 "/></g></g></g><g fill="#ffffff" fill-opacity="1"><g transform="translate(6.418345, 88.619608)"><g><path d="M -3.546875 -0.21875 L 11.75 -66.59375 L 11.90625 -67.296875 L 21.40625 -67.296875 L 21.515625 -66.46875 L 25.625 -32.609375 L 28.015625 -44.828125 L 33.015625 -66.59375 L 33.171875 -67.296875 L 44.1875 -67.296875 L 43.921875 -66.140625 L 28.609375 0.21875 L 28.453125 0.9375 L 19.71875 0.9375 L 19.59375 0.109375 L 15.375 -35.171875 L 13.078125 -23.609375 L 7.578125 0.21875 L 7.421875 0.9375 L -3.8125 0.9375 Z M -3.546875 -0.21875 "/></g></g></g><g fill="#ffffff" fill-opacity="1"><g transform="translate(46.727644, 88.619608)"><g><path d="M -3.546875 -0.21875 L 11.75 -66.59375 L 11.90625 -67.296875 L 36.078125 -67.296875 L 35.8125 -66.140625 L 33.8125 -57.421875 L 33.65625 -56.703125 L 21.515625 -56.703125 L 17.484375 -39.28125 L 29.0625 -39.28125 L 28.765625 -38.125 L 26.765625 -29.59375 L 26.609375 -28.875 L 15.078125 -28.875 L 10.625 -9.65625 L 23.21875 -9.65625 L 22.953125 -8.484375 L 20.953125 0.21875 L 20.8125 0.9375 L -3.8125 0.9375 Z M -3.546875 -0.21875 "/></g></g></g><g fill="#ffffff" fill-opacity="1"><g transform="translate(77.496942, 88.619608)"><g><path d="M 14.734375 0.078125 L 13.046875 -17.046875 L 4.296875 0.421875 L 4.03125 0.9375 L -7.84375 0.9375 L -7.125 -0.421875 L 11.15625 -35.78125 L 8.09375 -66.28125 L 7.984375 -67.296875 L 18.4375 -67.296875 L 18.5 -66.46875 L 20.203125 -49.953125 L 28.65625 -66.78125 L 28.90625 -67.296875 L 40.484375 -67.296875 L 39.765625 -65.90625 L 22.046875 -32.203125 L 25.375 -0.109375 L 25.484375 0.9375 L 14.8125 0.9375 Z M 14.734375 0.078125 "/></g></g></g><g fill="#ffffff" fill-opacity="1"><g transform="translate(110.64182, 88.619608)"><g><path d="M -3.171875 -0.21875 L 12.140625 -66.59375 L 12.28125 -67.296875 L 24.3125 -67.296875 L 24.046875 -66.140625 L 8.734375 0.21875 L 8.59375 0.9375 L -3.4375 0.9375 Z M -3.171875 -0.21875 "/></g></g></g><g fill="#ffffff" fill-opacity="1"><g transform="translate(131.456345, 88.619608)"><g><path d="M -3.546875 -0.21875 L 11.75 -66.59375 L 11.90625 -67.296875 L 23.9375 -67.296875 L 23.671875 -66.140625 L 17.75 -40.453125 L 24.875 -40.453125 L 30.90625 -66.59375 L 31.0625 -67.296875 L 43.09375 -67.296875 L 42.828125 -66.140625 L 27.515625 0.21875 L 27.359375 0.9375 L 15.34375 0.9375 L 15.609375 -0.21875 L 22.46875 -29.90625 L 15.34375 -29.90625 L 8.359375 0.21875 L 8.21875 0.9375 L -3.8125 0.9375 Z M -3.546875 -0.21875 "/></g></g></g><g fill="#ffffff" fill-opacity="1"><g transform="translate(170.672116, 88.619608)"><g><path d="M 24.3125 -2.90625 C 21.144531 0.164062 16.875 1.703125 11.5 1.703125 C 6.019531 1.703125 2.375 0.09375 0.5625 -3.125 C -1.226562 -6.21875 -1.394531 -10.929688 0.0625 -17.265625 L 11.5 -66.625 L 11.640625 -67.34375 L 23.671875 -67.34375 L 23.40625 -66.171875 L 12.0625 -17 C 11.90625 -16.351562 11.765625 -15.71875 11.640625 -15.09375 C 11.515625 -14.476562 11.414062 -13.953125 11.34375 -13.515625 C 11.269531 -13.078125 11.207031 -12.664062 11.15625 -12.28125 C 11.101562 -11.90625 11.078125 -11.628906 11.078125 -11.453125 C 11.078125 -11.285156 11.078125 -11.148438 11.078125 -11.046875 C 11.128906 -10.816406 11.1875 -10.59375 11.25 -10.375 C 11.3125 -10.164062 11.378906 -9.96875 11.453125 -9.78125 C 11.523438 -9.59375 11.613281 -9.410156 11.71875 -9.234375 C 11.71875 -9.210938 11.757812 -9.171875 11.84375 -9.109375 C 11.9375 -9.046875 12.132812 -8.984375 12.4375 -8.921875 C 12.738281 -8.859375 13.101562 -8.828125 13.53125 -8.828125 C 14.707031 -8.828125 15.625 -9.148438 16.28125 -9.796875 C 16.65625 -10.179688 16.976562 -10.609375 17.25 -11.078125 C 17.53125 -11.554688 17.757812 -12.070312 17.9375 -12.625 C 18.363281 -13.882812 18.816406 -15.492188 19.296875 -17.453125 L 30.640625 -66.625 L 30.796875 -67.34375 L 42.828125 -67.34375 L 42.5625 -66.171875 L 31.140625 -16.8125 C 29.703125 -10.53125 27.425781 -5.894531 24.3125 -2.90625 Z M 24.3125 -2.90625 "/></g></g></g><g fill="#ffffff" fill-opacity="1"><g transform="translate(209.133739, 88.619608)"><g><path d="M 38.03125 -49.09375 C 36.550781 -42.632812 33.988281 -38.3125 30.34375 -36.125 C 33.789062 -33.6875 34.554688 -28.40625 32.640625 -20.28125 L 32.265625 -18.59375 C 31.460938 -15.195312 30.476562 -12.257812 29.3125 -9.78125 C 28.144531 -7.3125 26.78125 -5.296875 25.21875 -3.734375 C 22.070312 -0.617188 17.796875 0.9375 12.390625 0.9375 L -3.4375 0.9375 L -3.171875 -0.21875 L 12.140625 -66.59375 L 12.28125 -67.296875 L 27.40625 -67.296875 C 32.6875 -67.296875 36.191406 -66.003906 37.921875 -63.421875 C 39.609375 -60.910156 39.796875 -56.828125 38.484375 -51.171875 Z M 10.8125 -8.78125 L 13.234375 -8.78125 C 14.941406 -8.78125 16.257812 -9.359375 17.1875 -10.515625 C 18.21875 -11.773438 19.132812 -14.125 19.9375 -17.5625 L 21.1875 -22.921875 C 21.914062 -26.140625 22.128906 -28.378906 21.828125 -29.640625 C 21.722656 -30.085938 21.492188 -30.425781 21.140625 -30.65625 C 20.796875 -30.882812 20.234375 -31 19.453125 -31 L 15.9375 -31 Z M 18.125 -40.453125 L 20.6875 -40.453125 C 22.101562 -40.453125 23.109375 -40.878906 23.703125 -41.734375 C 24.429688 -42.742188 25.1875 -44.90625 25.96875 -48.21875 L 26.875 -52.1875 C 27.40625 -54.519531 27.484375 -56.015625 27.109375 -56.671875 C 26.804688 -57.222656 26.015625 -57.5 24.734375 -57.5 L 22.09375 -57.5 Z M 18.125 -40.453125 "/></g></g></g></g></g><g transform="matrix(1, 0, 0, 1, 118, 122)"><g clip-path="url(#0b7b0dcaf6)"><g fill="#000000" fill-opacity="1"><g transform="translate(0.182569, 20.389124)"><g><path d="M 14.03125 -17.679688 L 17.296875 -17.679688 L 17.296875 0.625 L 11.726562 0.625 L 4.980469 -12.417969 L 4.296875 -13.835938 C 4.074219 -14.296875 3.882812 -14.742188 3.722656 -15.167969 L 4.308594 -15.390625 L 4.933594 -15.390625 L 4.933594 0.625 L 1.042969 0.625 L 1.042969 -17.679688 L 6.613281 -17.679688 L 13.378906 -4.597656 L 12.824219 -4.308594 L 13.371094 -4.609375 C 13.570312 -4.25 13.777344 -3.820312 14 -3.316406 C 14.214844 -2.828125 14.417969 -2.359375 14.605469 -1.910156 L 14.03125 -1.667969 L 13.402344 -1.667969 L 13.402344 -17.679688 Z M 14.03125 -16.429688 L 14.03125 -17.054688 L 14.65625 -17.054688 L 14.65625 -1.667969 L 13.453125 -1.421875 C 13.265625 -1.867188 13.066406 -2.328125 12.855469 -2.8125 C 12.648438 -3.285156 12.457031 -3.683594 12.277344 -4.007812 L 12.273438 -4.015625 L 5.675781 -16.769531 L 6.234375 -17.054688 L 6.234375 -16.429688 L 1.667969 -16.429688 L 1.667969 -17.054688 L 2.292969 -17.054688 L 2.292969 0 L 1.667969 0 L 1.667969 -0.625 L 4.308594 -0.625 L 4.308594 0 L 3.683594 0 L 3.683594 -15.390625 L 4.894531 -15.609375 C 5.042969 -15.214844 5.21875 -14.804688 5.421875 -14.378906 L 6.101562 -12.96875 L 5.539062 -12.695312 L 6.09375 -12.984375 L 12.660156 -0.289062 L 12.105469 0 L 12.105469 -0.625 L 16.671875 -0.625 L 16.671875 0 L 16.046875 0 L 16.046875 -17.054688 L 16.671875 -17.054688 L 16.671875 -16.429688 Z M 14.03125 -16.429688 "/></g></g></g><g fill="#000000" fill-opacity="1"><g transform="translate(18.514973, 20.389124)"><g><path d="M 4.308594 -2.753906 L 15.246094 -2.753906 L 15.246094 0.625 L 1.042969 0.625 L 1.042969 -17.679688 L 15.167969 -17.679688 L 15.167969 -14.300781 L 4.308594 -14.300781 L 4.308594 -14.925781 L 4.933594 -14.925781 L 4.933594 -9.773438 L 4.308594 -9.773438 L 4.308594 -10.398438 L 14.398438 -10.398438 L 14.398438 -7.070312 L 4.308594 -7.070312 L 4.308594 -7.695312 L 4.933594 -7.695312 L 4.933594 -2.128906 L 4.308594 -2.128906 Z M 3.683594 -1.503906 L 3.683594 -8.320312 L 13.773438 -8.320312 L 13.773438 -7.695312 L 13.148438 -7.695312 L 13.148438 -9.773438 L 13.773438 -9.773438 L 13.773438 -9.148438 L 3.683594 -9.148438 L 3.683594 -15.550781 L 14.542969 -15.550781 L 14.542969 -14.925781 L 13.917969 -14.925781 L 13.917969 -17.054688 L 14.542969 -17.054688 L 14.542969 -16.429688 L 1.667969 -16.429688 L 1.667969 -17.054688 L 2.292969 -17.054688 L 2.292969 0 L 1.667969 0 L 1.667969 -0.625 L 14.621094 -0.625 L 14.621094 0 L 13.992188 0 L 13.992188 -2.128906 L 14.621094 -2.128906 L 14.621094 -1.503906 Z M 3.683594 -1.503906 "/></g></g></g><g fill="#000000" fill-opacity="1"><g transform="translate(34.668, 20.389124)"><g><path d="M 15.988281 -17.054688 L 15.988281 -14.300781 L 9.464844 -14.300781 L 9.464844 -14.925781 L 10.089844 -14.925781 L 10.089844 0.625 L 6.195312 0.625 L 6.195312 -14.925781 L 6.824219 -14.925781 L 6.824219 -14.300781 L 0.273438 -14.300781 L 0.273438 -17.679688 L 15.988281 -17.679688 Z M 14.738281 -17.054688 L 15.363281 -17.054688 L 15.363281 -16.429688 L 0.898438 -16.429688 L 0.898438 -17.054688 L 1.523438 -17.054688 L 1.523438 -14.925781 L 0.898438 -14.925781 L 0.898438 -15.550781 L 7.449219 -15.550781 L 7.449219 0 L 6.824219 0 L 6.824219 -0.625 L 9.464844 -0.625 L 9.464844 0 L 8.839844 0 L 8.839844 -15.550781 L 15.363281 -15.550781 L 15.363281 -14.925781 L 14.738281 -14.925781 Z M 14.738281 -17.054688 "/></g></g></g><g fill="#000000" fill-opacity="1"><g transform="translate(50.923589, 20.389124)"><g><path d="M 22.261719 -17.679688 L 25.679688 -17.679688 L 21.6875 0.625 L 16.179688 0.625 L 12.421875 -14.804688 L 13.027344 -14.953125 L 13.636719 -14.804688 L 9.878906 0.625 L 4.371094 0.625 L 0.378906 -17.679688 L 4.324219 -17.679688 L 7.792969 -1.75 L 7.179688 -1.617188 L 6.574219 -1.765625 L 10.460938 -17.679688 L 15.625 -17.679688 L 19.511719 -1.765625 L 18.902344 -1.617188 L 18.292969 -1.75 L 21.757812 -17.679688 Z M 22.261719 -16.429688 L 22.261719 -17.054688 L 22.875 -16.921875 L 19.515625 -1.484375 L 18.296875 -1.46875 L 14.523438 -16.90625 L 15.132812 -17.054688 L 15.132812 -16.429688 L 10.953125 -16.429688 L 10.953125 -17.054688 L 11.558594 -16.90625 L 7.789062 -1.46875 L 6.570312 -1.484375 L 3.210938 -16.921875 L 3.820312 -17.054688 L 3.820312 -16.429688 L 1.152344 -16.429688 L 1.152344 -17.054688 L 1.765625 -17.1875 L 5.484375 -0.132812 L 4.875 0 L 4.875 -0.625 L 9.386719 -0.625 L 9.386719 0 L 8.78125 -0.148438 L 12.421875 -15.101562 L 13.636719 -15.101562 L 17.277344 -0.148438 L 16.671875 0 L 16.671875 -0.625 L 21.183594 -0.625 L 21.183594 0 L 20.574219 -0.132812 L 24.292969 -17.1875 L 24.902344 -17.054688 L 24.902344 -16.429688 Z M 22.261719 -16.429688 "/></g></g></g><g fill="#000000" fill-opacity="1"><g transform="translate(76.973562, 20.389124)"><g><path d="M 10.054688 1.0625 C 7.898438 1.0625 6.136719 0.632812 4.761719 -0.226562 C 3.375 -1.089844 2.363281 -2.261719 1.722656 -3.738281 C 1.097656 -5.179688 0.785156 -6.777344 0.785156 -8.539062 C 0.785156 -10.285156 1.097656 -11.875 1.722656 -13.304688 C 2.363281 -14.773438 3.375 -15.945312 4.753906 -16.828125 C 6.132812 -17.703125 7.898438 -18.144531 10.054688 -18.144531 C 11.660156 -18.144531 13.050781 -17.890625 14.226562 -17.386719 C 15.410156 -16.878906 16.378906 -16.175781 17.136719 -15.277344 C 17.882812 -14.394531 18.4375 -13.367188 18.796875 -12.199219 C 19.148438 -11.054688 19.324219 -9.835938 19.324219 -8.539062 C 19.324219 -6.796875 19.011719 -5.203125 18.386719 -3.765625 C 17.746094 -2.289062 16.734375 -1.113281 15.351562 -0.242188 C 13.976562 0.628906 12.210938 1.0625 10.054688 1.0625 Z M 10.054688 -0.1875 C 11.96875 -0.1875 13.511719 -0.558594 14.683594 -1.296875 C 15.847656 -2.035156 16.699219 -3.023438 17.238281 -4.261719 C 17.792969 -5.542969 18.070312 -6.96875 18.070312 -8.539062 C 18.070312 -9.710938 17.914062 -10.804688 17.597656 -11.832031 C 17.292969 -12.835938 16.816406 -13.71875 16.179688 -14.472656 C 15.550781 -15.21875 14.734375 -15.804688 13.730469 -16.238281 C 12.714844 -16.675781 11.488281 -16.890625 10.054688 -16.890625 C 8.140625 -16.890625 6.597656 -16.519531 5.425781 -15.773438 C 4.261719 -15.027344 3.40625 -14.039062 2.867188 -12.804688 C 2.3125 -11.535156 2.035156 -10.113281 2.035156 -8.539062 C 2.035156 -6.953125 2.3125 -5.515625 2.871094 -4.238281 C 3.40625 -2.996094 4.257812 -2.011719 5.421875 -1.285156 C 6.59375 -0.554688 8.140625 -0.1875 10.054688 -0.1875 Z M 4.804688 -8.539062 C 4.804688 -6.445312 5.21875 -4.882812 6.042969 -3.851562 C 6.832031 -2.863281 8.167969 -2.371094 10.054688 -2.371094 C 11.941406 -2.371094 13.277344 -2.863281 14.066406 -3.851562 C 14.890625 -4.882812 15.300781 -6.445312 15.300781 -8.539062 C 15.300781 -10.632812 14.890625 -12.199219 14.066406 -13.230469 C 13.277344 -14.21875 11.941406 -14.710938 10.054688 -14.710938 C 8.167969 -14.710938 6.832031 -14.21875 6.042969 -13.230469 C 5.21875 -12.199219 4.804688 -10.632812 4.804688 -8.539062 Z M 3.554688 -8.539062 C 3.554688 -10.925781 4.058594 -12.75 5.0625 -14.007812 C 6.105469 -15.3125 7.765625 -15.964844 10.054688 -15.964844 C 12.339844 -15.964844 14.003906 -15.3125 15.042969 -14.007812 C 16.050781 -12.75 16.554688 -10.925781 16.554688 -8.539062 C 16.554688 -6.15625 16.050781 -4.332031 15.042969 -3.074219 C 14.003906 -1.769531 12.339844 -1.117188 10.054688 -1.117188 C 7.765625 -1.117188 6.105469 -1.769531 5.0625 -3.074219 C 4.058594 -4.332031 3.554688 -6.15625 3.554688 -8.539062 Z M 3.554688 -8.539062 "/></g></g></g><g fill="#000000" fill-opacity="1"><g transform="translate(97.075109, 20.389124)"><g><path d="M 15.371094 -4.410156 L 15.371094 -2.796875 C 15.371094 -2.148438 15.414062 -1.609375 15.492188 -1.175781 C 15.574219 -0.726562 15.644531 -0.390625 15.707031 -0.171875 L 15.9375 0.625 L 12.054688 0.625 L 11.917969 0.183594 C 11.84375 -0.0625 11.761719 -0.421875 11.683594 -0.894531 C 11.597656 -1.375 11.558594 -1.972656 11.558594 -2.691406 L 11.558594 -4.027344 C 11.558594 -5.058594 11.320312 -5.761719 10.84375 -6.140625 C 10.324219 -6.554688 9.582031 -6.761719 8.617188 -6.761719 L 4.308594 -6.761719 L 4.308594 -7.386719 L 4.933594 -7.386719 L 4.933594 0.625 L 1.042969 0.625 L 1.042969 -17.679688 L 9.824219 -17.679688 C 11.761719 -17.679688 13.253906 -17.214844 14.304688 -16.277344 C 15.375 -15.324219 15.910156 -14.046875 15.910156 -12.4375 C 15.910156 -11.125 15.546875 -10.035156 14.8125 -9.175781 C 14.09375 -8.328125 13.191406 -7.769531 12.105469 -7.5 L 11.953125 -8.105469 L 12.144531 -8.699219 C 12.777344 -8.496094 13.324219 -8.246094 13.777344 -7.949219 C 14.285156 -7.621094 14.679688 -7.171875 14.960938 -6.597656 C 15.234375 -6.039062 15.371094 -5.3125 15.371094 -4.410156 Z M 14.121094 -4.410156 C 14.121094 -5.117188 14.027344 -5.664062 13.839844 -6.046875 C 13.660156 -6.414062 13.414062 -6.699219 13.101562 -6.898438 C 12.734375 -7.136719 12.289062 -7.339844 11.757812 -7.511719 L 9.683594 -8.183594 L 11.800781 -8.710938 C 12.628906 -8.917969 13.316406 -9.34375 13.859375 -9.984375 C 14.394531 -10.613281 14.660156 -11.429688 14.660156 -12.4375 C 14.660156 -13.671875 14.265625 -14.640625 13.472656 -15.34375 C 12.660156 -16.070312 11.441406 -16.429688 9.824219 -16.429688 L 1.667969 -16.429688 L 1.667969 -17.054688 L 2.292969 -17.054688 L 2.292969 0 L 1.667969 0 L 1.667969 -0.625 L 4.308594 -0.625 L 4.308594 0 L 3.683594 0 L 3.683594 -8.011719 L 8.617188 -8.011719 C 9.875 -8.011719 10.878906 -7.714844 11.625 -7.117188 C 12.414062 -6.488281 12.808594 -5.457031 12.808594 -4.027344 L 12.808594 -2.691406 C 12.808594 -2.042969 12.84375 -1.515625 12.914062 -1.105469 C 12.988281 -0.6875 13.054688 -0.378906 13.113281 -0.183594 L 12.515625 0 L 12.515625 -0.625 L 15.105469 -0.625 L 15.105469 0 L 14.503906 0.171875 C 14.429688 -0.0859375 14.351562 -0.460938 14.261719 -0.953125 C 14.167969 -1.460938 14.121094 -2.074219 14.121094 -2.796875 Z M 9.644531 -9.960938 C 10.535156 -9.960938 11.125 -10.140625 11.410156 -10.503906 C 11.730469 -10.914062 11.890625 -11.496094 11.890625 -12.261719 C 11.890625 -12.925781 11.71875 -13.429688 11.367188 -13.78125 C 11.019531 -14.128906 10.410156 -14.300781 9.542969 -14.300781 L 4.308594 -14.300781 L 4.308594 -14.925781 L 4.933594 -14.925781 L 4.933594 -9.335938 L 4.308594 -9.335938 L 4.308594 -9.960938 Z M 9.644531 -8.710938 L 3.683594 -8.710938 L 3.683594 -15.550781 L 9.542969 -15.550781 C 10.757812 -15.550781 11.660156 -15.257812 12.253906 -14.664062 C 12.84375 -14.070312 13.140625 -13.269531 13.140625 -12.261719 C 13.140625 -11.210938 12.890625 -10.367188 12.390625 -9.730469 C 11.855469 -9.050781 10.941406 -8.710938 9.644531 -8.710938 Z M 9.644531 -8.710938 "/></g></g></g><g fill="#000000" fill-opacity="1"><g transform="translate(113.89477, 20.389124)"><g><path d="M 9.710938 -10.246094 L 16.988281 -0.332031 L 16.988281 0.625 L 12.835938 0.625 L 6.929688 -7.613281 L 7.4375 -7.976562 L 7.890625 -7.546875 L 4.761719 -4.238281 L 4.308594 -4.667969 L 4.933594 -4.667969 L 4.933594 0.625 L 1.042969 0.625 L 1.042969 -17.679688 L 4.933594 -17.679688 L 4.933594 -8.027344 L 4.308594 -8.027344 L 3.847656 -8.449219 L 12.238281 -17.679688 L 17.429688 -17.679688 L 9.664062 -9.445312 L 9.207031 -9.875 Z M 8.394531 -9.925781 L 15.523438 -17.484375 L 15.980469 -17.054688 L 15.980469 -16.429688 L 12.515625 -16.429688 L 12.515625 -17.054688 L 12.980469 -16.636719 L 3.683594 -6.410156 L 3.683594 -17.054688 L 4.308594 -17.054688 L 4.308594 -16.429688 L 1.667969 -16.429688 L 1.667969 -17.054688 L 2.292969 -17.054688 L 2.292969 0 L 1.667969 0 L 1.667969 -0.625 L 4.308594 -0.625 L 4.308594 0 L 3.683594 0 L 3.683594 -4.917969 L 7.503906 -8.957031 L 13.664062 -0.363281 L 13.15625 0 L 13.15625 -0.625 L 16.363281 -0.625 L 16.363281 0 L 15.738281 0 L 15.738281 -0.128906 L 16.363281 -0.128906 L 15.859375 0.242188 L 8.703125 -9.503906 Z M 8.394531 -9.925781 "/></g></g></g><g fill="#000000" fill-opacity="1"><g transform="translate(131.406703, 20.389124)"><g><path d="M 11.285156 -14.300781 L 7.796875 -14.300781 L 7.796875 -14.925781 L 8.421875 -14.925781 L 8.421875 -2.128906 L 7.796875 -2.128906 L 7.796875 -2.753906 L 11.910156 -2.753906 L 11.910156 0.625 L 1.042969 0.625 L 1.042969 -2.753906 L 5.15625 -2.753906 L 5.15625 -2.128906 L 4.53125 -2.128906 L 4.53125 -14.925781 L 5.15625 -14.925781 L 5.15625 -14.300781 L 1.042969 -14.300781 L 1.042969 -17.679688 L 11.910156 -17.679688 L 11.910156 -14.300781 Z M 11.285156 -15.550781 L 11.285156 -14.925781 L 10.660156 -14.925781 L 10.660156 -17.054688 L 11.285156 -17.054688 L 11.285156 -16.429688 L 1.667969 -16.429688 L 1.667969 -17.054688 L 2.292969 -17.054688 L 2.292969 -14.925781 L 1.667969 -14.925781 L 1.667969 -15.550781 L 5.78125 -15.550781 L 5.78125 -1.503906 L 1.667969 -1.503906 L 1.667969 -2.128906 L 2.292969 -2.128906 L 2.292969 0 L 1.667969 0 L 1.667969 -0.625 L 11.285156 -0.625 L 11.285156 0 L 10.660156 0 L 10.660156 -2.128906 L 11.285156 -2.128906 L 11.285156 -1.503906 L 7.171875 -1.503906 L 7.171875 -15.550781 Z M 11.285156 -15.550781 "/></g></g></g><g fill="#000000" fill-opacity="1"><g transform="translate(144.354772, 20.389124)"><g><path d="M 14.03125 -17.679688 L 17.296875 -17.679688 L 17.296875 0.625 L 11.726562 0.625 L 4.980469 -12.417969 L 4.296875 -13.835938 C 4.074219 -14.296875 3.882812 -14.742188 3.722656 -15.167969 L 4.308594 -15.390625 L 4.933594 -15.390625 L 4.933594 0.625 L 1.042969 0.625 L 1.042969 -17.679688 L 6.613281 -17.679688 L 13.378906 -4.597656 L 12.824219 -4.308594 L 13.371094 -4.609375 C 13.570312 -4.25 13.777344 -3.820312 14 -3.316406 C 14.214844 -2.828125 14.417969 -2.359375 14.605469 -1.910156 L 14.03125 -1.667969 L 13.402344 -1.667969 L 13.402344 -17.679688 Z M 14.03125 -16.429688 L 14.03125 -17.054688 L 14.65625 -17.054688 L 14.65625 -1.667969 L 13.453125 -1.421875 C 13.265625 -1.867188 13.066406 -2.328125 12.855469 -2.8125 C 12.648438 -3.285156 12.457031 -3.683594 12.277344 -4.007812 L 12.273438 -4.015625 L 5.675781 -16.769531 L 6.234375 -17.054688 L 6.234375 -16.429688 L 1.667969 -16.429688 L 1.667969 -17.054688 L 2.292969 -17.054688 L 2.292969 0 L 1.667969 0 L 1.667969 -0.625 L 4.308594 -0.625 L 4.308594 0 L 3.683594 0 L 3.683594 -15.390625 L 4.894531 -15.609375 C 5.042969 -15.214844 5.21875 -14.804688 5.421875 -14.378906 L 6.101562 -12.96875 L 5.539062 -12.695312 L 6.09375 -12.984375 L 12.660156 -0.289062 L 12.105469 0 L 12.105469 -0.625 L 16.671875 -0.625 L 16.671875 0 L 16.046875 0 L 16.046875 -17.054688 L 16.671875 -17.054688 L 16.671875 -16.429688 Z M 14.03125 -16.429688 "/></g></g></g><g fill="#000000" fill-opacity="1"><g transform="translate(162.687176, 20.389124)"><g><path d="M 9.695312 1.0625 C 7.65625 1.0625 5.972656 0.628906 4.648438 -0.230469 C 3.320312 -1.097656 2.339844 -2.261719 1.707031 -3.726562 C 1.09375 -5.15625 0.785156 -6.761719 0.785156 -8.539062 C 0.785156 -10.324219 1.113281 -11.933594 1.765625 -13.367188 C 2.433594 -14.832031 3.464844 -15.996094 4.867188 -16.859375 C 6.257812 -17.714844 8.019531 -18.144531 10.15625 -18.144531 C 12.941406 -18.144531 15.054688 -17.539062 16.496094 -16.328125 C 17.949219 -15.109375 18.796875 -13.375 19.039062 -11.121094 L 19.109375 -10.429688 L 15.117188 -10.429688 L 15.050781 -10.980469 C 14.898438 -12.230469 14.449219 -13.164062 13.699219 -13.777344 C 12.933594 -14.398438 11.71875 -14.710938 10.054688 -14.710938 C 8.183594 -14.710938 6.851562 -14.214844 6.054688 -13.214844 C 5.222656 -12.175781 4.804688 -10.617188 4.804688 -8.539062 C 4.804688 -6.496094 5.214844 -4.941406 6.035156 -3.882812 C 6.816406 -2.875 8.164062 -2.371094 10.078125 -2.371094 C 11.304688 -2.371094 12.273438 -2.566406 12.984375 -2.957031 C 13.679688 -3.34375 14.191406 -3.851562 14.527344 -4.484375 C 14.886719 -5.160156 15.109375 -5.886719 15.203125 -6.667969 L 15.824219 -6.589844 L 15.824219 -5.964844 L 7.992188 -5.964844 L 7.992188 -9.167969 L 19.015625 -9.167969 L 19.015625 0.625 L 15.378906 0.625 L 15.378906 -3.617188 L 16.003906 -3.617188 L 16.601562 -3.425781 C 16.164062 -2.058594 15.347656 -0.964844 14.152344 -0.148438 C 12.96875 0.65625 11.480469 1.0625 9.695312 1.0625 Z M 9.695312 -0.1875 C 11.226562 -0.1875 12.476562 -0.519531 13.445312 -1.183594 C 14.40625 -1.835938 15.058594 -2.710938 15.410156 -3.808594 L 16.628906 -3.617188 L 16.628906 0 L 16.003906 0 L 16.003906 -0.625 L 18.390625 -0.625 L 18.390625 0 L 17.765625 0 L 17.765625 -8.539062 L 18.390625 -8.539062 L 18.390625 -7.914062 L 8.617188 -7.914062 L 8.617188 -8.539062 L 9.242188 -8.539062 L 9.242188 -6.589844 L 8.617188 -6.589844 L 8.617188 -7.21875 L 16.53125 -7.21875 L 16.445312 -6.515625 C 16.332031 -5.585938 16.0625 -4.714844 15.632812 -3.902344 C 15.183594 -3.046875 14.5 -2.367188 13.589844 -1.863281 C 12.691406 -1.367188 11.519531 -1.117188 10.078125 -1.117188 C 7.753906 -1.117188 6.078125 -1.785156 5.046875 -3.117188 C 4.050781 -4.402344 3.554688 -6.210938 3.554688 -8.539062 C 3.554688 -10.910156 4.0625 -12.730469 5.078125 -13.996094 C 6.125 -15.308594 7.785156 -15.964844 10.054688 -15.964844 C 12.015625 -15.964844 13.492188 -15.558594 14.488281 -14.746094 C 15.5 -13.921875 16.101562 -12.714844 16.292969 -11.128906 L 15.671875 -11.054688 L 15.671875 -11.679688 L 18.414062 -11.679688 L 18.414062 -11.054688 L 17.792969 -10.988281 C 17.589844 -12.90625 16.886719 -14.367188 15.691406 -15.371094 C 14.484375 -16.386719 12.636719 -16.890625 10.15625 -16.890625 C 8.257812 -16.890625 6.710938 -16.527344 5.523438 -15.792969 C 4.339844 -15.0625 3.464844 -14.082031 2.902344 -12.847656 C 2.324219 -11.578125 2.035156 -10.144531 2.035156 -8.539062 C 2.035156 -6.933594 2.308594 -5.496094 2.855469 -4.222656 C 3.386719 -2.988281 4.210938 -2.007812 5.328125 -1.28125 C 6.449219 -0.554688 7.902344 -0.1875 9.695312 -0.1875 Z M 9.695312 -0.1875 "/></g></g></g><g fill="#ffffff" fill-opacity="1"><g transform="translate(0.182569, 20.389124)"><g><path d="M 14.03125 -17.046875 L 16.671875 -17.046875 L 16.671875 0 L 12.109375 0 L 5.53125 -12.6875 C 5.289062 -13.1875 5.0625 -13.65625 4.84375 -14.09375 C 4.632812 -14.539062 4.457031 -14.972656 4.3125 -15.390625 L 4.3125 0 L 1.671875 0 L 1.671875 -17.046875 L 6.234375 -17.046875 L 12.828125 -4.3125 C 13.015625 -3.96875 13.210938 -3.550781 13.421875 -3.0625 C 13.640625 -2.570312 13.84375 -2.109375 14.03125 -1.671875 Z M 14.03125 -17.046875 "/></g></g></g><g fill="#ffffff" fill-opacity="1"><g transform="translate(18.514973, 20.389124)"><g><path d="M 4.3125 -2.125 L 14.609375 -2.125 L 14.609375 0 L 1.671875 0 L 1.671875 -17.046875 L 14.53125 -17.046875 L 14.53125 -14.921875 L 4.3125 -14.921875 L 4.3125 -9.765625 L 13.765625 -9.765625 L 13.765625 -7.6875 L 4.3125 -7.6875 Z M 4.3125 -2.125 "/></g></g></g><g fill="#ffffff" fill-opacity="1"><g transform="translate(34.668, 20.389124)"><g><path d="M 15.359375 -17.046875 L 15.359375 -14.921875 L 9.46875 -14.921875 L 9.46875 0 L 6.828125 0 L 6.828125 -14.921875 L 0.890625 -14.921875 L 0.890625 -17.046875 Z M 15.359375 -17.046875 "/></g></g></g><g fill="#ffffff" fill-opacity="1"><g transform="translate(50.923589, 20.389124)"><g><path d="M 22.25 -17.046875 L 24.890625 -17.046875 L 21.171875 0 L 16.671875 0 L 13.03125 -14.953125 L 9.390625 0 L 4.875 0 L 1.15625 -17.046875 L 3.828125 -17.046875 L 7.171875 -1.609375 L 10.953125 -17.046875 L 15.125 -17.046875 L 18.890625 -1.609375 Z M 22.25 -17.046875 "/></g></g></g><g fill="#ffffff" fill-opacity="1"><g transform="translate(76.973562, 20.389124)"><g><path d="M 10.046875 0.4375 C 8.015625 0.4375 6.359375 0.0390625 5.078125 -0.75 C 3.804688 -1.550781 2.875 -2.628906 2.28125 -3.984375 C 1.695312 -5.347656 1.40625 -6.863281 1.40625 -8.53125 C 1.40625 -10.195312 1.695312 -11.703125 2.28125 -13.046875 C 2.875 -14.398438 3.804688 -15.484375 5.078125 -16.296875 C 6.359375 -17.109375 8.015625 -17.515625 10.046875 -17.515625 C 11.566406 -17.515625 12.875 -17.28125 13.96875 -16.8125 C 15.0625 -16.34375 15.953125 -15.695312 16.640625 -14.875 C 17.335938 -14.050781 17.851562 -13.097656 18.1875 -12.015625 C 18.519531 -10.929688 18.6875 -9.769531 18.6875 -8.53125 C 18.6875 -6.875 18.390625 -5.363281 17.796875 -4 C 17.210938 -2.644531 16.285156 -1.566406 15.015625 -0.765625 C 13.742188 0.0351562 12.085938 0.4375 10.046875 0.4375 Z M 4.171875 -8.53125 C 4.171875 -6.289062 4.628906 -4.597656 5.546875 -3.453125 C 6.460938 -2.316406 7.960938 -1.75 10.046875 -1.75 C 12.128906 -1.75 13.628906 -2.316406 14.546875 -3.453125 C 15.460938 -4.597656 15.921875 -6.289062 15.921875 -8.53125 C 15.921875 -10.769531 15.460938 -12.460938 14.546875 -13.609375 C 13.628906 -14.753906 12.128906 -15.328125 10.046875 -15.328125 C 7.960938 -15.328125 6.460938 -14.753906 5.546875 -13.609375 C 4.628906 -12.460938 4.171875 -10.769531 4.171875 -8.53125 Z M 4.171875 -8.53125 "/></g></g></g><g fill="#ffffff" fill-opacity="1"><g transform="translate(97.075109, 20.389124)"><g><path d="M 14.75 -4.40625 L 14.75 -2.796875 C 14.75 -2.109375 14.789062 -1.53125 14.875 -1.0625 C 14.957031 -0.59375 15.035156 -0.238281 15.109375 0 L 12.515625 0 C 12.441406 -0.21875 12.363281 -0.550781 12.28125 -1 C 12.207031 -1.445312 12.171875 -2.007812 12.171875 -2.6875 L 12.171875 -4.03125 C 12.171875 -5.257812 11.851562 -6.125 11.21875 -6.625 C 10.59375 -7.132812 9.722656 -7.390625 8.609375 -7.390625 L 4.3125 -7.390625 L 4.3125 0 L 1.671875 0 L 1.671875 -17.046875 L 9.828125 -17.046875 C 11.597656 -17.046875 12.945312 -16.628906 13.875 -15.796875 C 14.8125 -14.972656 15.28125 -13.851562 15.28125 -12.4375 C 15.28125 -11.269531 14.960938 -10.316406 14.328125 -9.578125 C 13.703125 -8.835938 12.910156 -8.347656 11.953125 -8.109375 C 12.535156 -7.921875 13.03125 -7.691406 13.4375 -7.421875 C 13.84375 -7.160156 14.160156 -6.789062 14.390625 -6.3125 C 14.628906 -5.84375 14.75 -5.207031 14.75 -4.40625 Z M 9.640625 -9.328125 C 10.734375 -9.328125 11.484375 -9.585938 11.890625 -10.109375 C 12.304688 -10.628906 12.515625 -11.34375 12.515625 -12.25 C 12.515625 -13.09375 12.28125 -13.75 11.8125 -14.21875 C 11.34375 -14.6875 10.582031 -14.921875 9.53125 -14.921875 L 4.3125 -14.921875 L 4.3125 -9.328125 Z M 9.640625 -9.328125 "/></g></g></g><g fill="#ffffff" fill-opacity="1"><g transform="translate(113.89477, 20.389124)"><g><path d="M 9.203125 -9.875 L 16.359375 -0.125 L 16.359375 0 L 13.15625 0 L 7.4375 -7.96875 L 4.3125 -4.671875 L 4.3125 0 L 1.671875 0 L 1.671875 -17.046875 L 4.3125 -17.046875 L 4.3125 -8.03125 L 12.515625 -17.046875 L 15.96875 -17.046875 Z M 9.203125 -9.875 "/></g></g></g><g fill="#ffffff" fill-opacity="1"><g transform="translate(131.406703, 20.389124)"><g><path d="M 11.28125 -14.921875 L 7.796875 -14.921875 L 7.796875 -2.125 L 11.28125 -2.125 L 11.28125 0 L 1.671875 0 L 1.671875 -2.125 L 5.15625 -2.125 L 5.15625 -14.921875 L 1.671875 -14.921875 L 1.671875 -17.046875 L 11.28125 -17.046875 Z M 11.28125 -14.921875 "/></g></g></g><g fill="#ffffff" fill-opacity="1"><g transform="translate(144.354772, 20.389124)"><g><path d="M 14.03125 -17.046875 L 16.671875 -17.046875 L 16.671875 0 L 12.109375 0 L 5.53125 -12.6875 C 5.289062 -13.1875 5.0625 -13.65625 4.84375 -14.09375 C 4.632812 -14.539062 4.457031 -14.972656 4.3125 -15.390625 L 4.3125 0 L 1.671875 0 L 1.671875 -17.046875 L 6.234375 -17.046875 L 12.828125 -4.3125 C 13.015625 -3.96875 13.210938 -3.550781 13.421875 -3.0625 C 13.640625 -2.570312 13.84375 -2.109375 14.03125 -1.671875 Z M 14.03125 -17.046875 "/></g></g></g><g fill="#ffffff" fill-opacity="1"><g transform="translate(162.687176, 20.389124)"><g><path d="M 9.6875 0.4375 C 7.78125 0.4375 6.210938 0.0390625 4.984375 -0.75 C 3.765625 -1.550781 2.863281 -2.625 2.28125 -3.96875 C 1.695312 -5.320312 1.40625 -6.84375 1.40625 -8.53125 C 1.40625 -10.226562 1.710938 -11.75 2.328125 -13.09375 C 2.941406 -14.445312 3.894531 -15.519531 5.1875 -16.3125 C 6.476562 -17.113281 8.132812 -17.515625 10.15625 -17.515625 C 12.789062 -17.515625 14.769531 -16.957031 16.09375 -15.84375 C 17.414062 -14.726562 18.1875 -13.128906 18.40625 -11.046875 L 15.671875 -11.046875 C 15.492188 -12.460938 14.960938 -13.53125 14.078125 -14.25 C 13.203125 -14.96875 11.859375 -15.328125 10.046875 -15.328125 C 7.984375 -15.328125 6.488281 -14.75 5.5625 -13.59375 C 4.632812 -12.445312 4.171875 -10.757812 4.171875 -8.53125 C 4.171875 -6.34375 4.625 -4.664062 5.53125 -3.5 C 6.4375 -2.332031 7.953125 -1.75 10.078125 -1.75 C 11.410156 -1.75 12.476562 -1.96875 13.28125 -2.40625 C 14.082031 -2.851562 14.679688 -3.445312 15.078125 -4.1875 C 15.472656 -4.9375 15.722656 -5.738281 15.828125 -6.59375 L 8.609375 -6.59375 L 8.609375 -8.53125 L 18.390625 -8.53125 L 18.390625 0 L 16 0 L 16 -3.609375 C 15.601562 -2.378906 14.863281 -1.394531 13.78125 -0.65625 C 12.707031 0.0703125 11.34375 0.4375 9.6875 0.4375 Z M 9.6875 0.4375 "/></g></g></g></g></g></svg>