<svg xmlns="http://www.w3.org/2000/svg" xmlns:xlink="http://www.w3.org/1999/xlink" width="500" zoomAndPan="magnify" viewBox="0 0 375 374.999991" height="500" preserveAspectRatio="xMidYMid meet" version="1.0"><defs><g/><clipPath id="377abe61c0"><path d="M 4.046875 132.511719 L 109.796875 132.511719 L 109.796875 237.511719 L 4.046875 237.511719 Z M 4.046875 132.511719 " clip-rule="nonzero"/></clipPath><clipPath id="dcb9650fc5"><path d="M 107.957031 134.242188 C 106.851562 133.136719 105.34375 132.546875 103.703125 132.59375 L 46.957031 134.09375 C 44.09375 134.171875 41.417969 136.109375 40.296875 138.917969 C 39.347656 141.304688 39.792969 143.824219 41.460938 145.492188 L 48.53125 152.5625 L 27.941406 153.105469 C 25.078125 153.183594 22.402344 155.125 21.28125 157.933594 C 20.332031 160.320312 20.78125 162.835938 22.445312 164.503906 L 26.925781 168.984375 L 11.664062 169.386719 C 8.796875 169.464844 6.121094 171.40625 5.003906 174.214844 C 4.054688 176.597656 4.5 179.117188 6.167969 180.785156 L 61.40625 236.023438 C 62.496094 237.113281 63.945312 237.679688 65.484375 237.679688 C 66.304688 237.679688 67.152344 237.515625 67.984375 237.1875 C 70.792969 236.066406 72.730469 233.386719 72.804688 230.527344 L 73.207031 215.265625 L 77.6875 219.746094 C 78.773438 220.832031 80.222656 221.398438 81.761719 221.398438 C 82.585938 221.398438 83.433594 221.238281 84.265625 220.90625 C 87.074219 219.785156 89.011719 217.105469 89.082031 214.246094 L 89.628906 193.660156 L 96.699219 200.730469 C 97.789062 201.816406 99.238281 202.386719 100.777344 202.386719 C 101.597656 202.386719 102.445312 202.222656 103.277344 201.890625 C 106.085938 200.769531 108.023438 198.09375 108.097656 195.230469 L 109.597656 138.492188 C 109.644531 136.855469 109.058594 135.34375 107.957031 134.242188 Z M 28.34375 160.265625 L 55.519531 159.546875 L 63.976562 168.003906 L 36.800781 168.722656 Z M 82.90625 176.800781 L 65.390625 159.289062 L 83.382812 158.8125 Z M 66.484375 198.410156 L 43.785156 175.707031 L 67.101562 175.09375 Z M 65.644531 230.128906 L 12.0625 176.546875 L 33.910156 175.96875 L 66.222656 208.28125 Z M 81.925781 213.847656 L 73.46875 205.390625 L 74.1875 178.21875 L 82.644531 186.675781 Z M 100.941406 194.835938 L 89.890625 183.785156 L 90.585938 157.507812 C 90.628906 155.867188 90.046875 154.359375 88.941406 153.253906 C 87.835938 152.148438 86.320312 151.574219 84.6875 151.609375 L 58.40625 152.300781 L 47.355469 141.25 L 102.398438 139.796875 Z M 100.941406 194.835938 " clip-rule="nonzero"/></clipPath><linearGradient x1="-1.286999" gradientTransform="matrix(0.356228, 0, 0, 0.356228, 4.511528, 132.592317)" y1="147.501007" x2="295.125" gradientUnits="userSpaceOnUse" y2="147.501007" id="71a965644f"><stop stop-opacity="1" stop-color="rgb(37.649536%, 93.728638%, 100%)" offset="0"/><stop stop-opacity="1" stop-color="rgb(37.583923%, 93.739319%, 99.917603%)" offset="0.0078125"/><stop stop-opacity="1" stop-color="rgb(37.3703%, 93.77594%, 99.650574%)" offset="0.015625"/><stop stop-opacity="1" stop-color="rgb(37.07428%, 93.824768%, 99.281311%)" offset="0.0234375"/><stop stop-opacity="1" stop-color="rgb(36.778259%, 93.873596%, 98.912048%)" offset="0.03125"/><stop stop-opacity="1" stop-color="rgb(36.483765%, 93.922424%, 98.542786%)" offset="0.0390625"/><stop stop-opacity="1" stop-color="rgb(36.187744%, 93.972778%, 98.171997%)" offset="0.046875"/><stop stop-opacity="1" stop-color="rgb(35.891724%, 94.021606%, 97.802734%)" offset="0.0546875"/><stop stop-opacity="1" stop-color="rgb(35.597229%, 94.070435%, 97.433472%)" offset="0.0625"/><stop stop-opacity="1" stop-color="rgb(35.301208%, 94.120789%, 97.064209%)" offset="0.0703125"/><stop stop-opacity="1" stop-color="rgb(35.005188%, 94.169617%, 96.694946%)" offset="0.078125"/><stop stop-opacity="1" stop-color="rgb(34.710693%, 94.218445%, 96.325684%)" offset="0.0859375"/><stop stop-opacity="1" stop-color="rgb(34.414673%, 94.267273%, 95.956421%)" offset="0.09375"/><stop stop-opacity="1" stop-color="rgb(34.118652%, 94.317627%, 95.587158%)" offset="0.101563"/><stop stop-opacity="1" stop-color="rgb(33.824158%, 94.366455%, 95.217896%)" offset="0.109375"/><stop stop-opacity="1" stop-color="rgb(33.528137%, 94.415283%, 94.848633%)" offset="0.117188"/><stop stop-opacity="1" stop-color="rgb(33.232117%, 94.464111%, 94.47937%)" offset="0.125"/><stop stop-opacity="1" stop-color="rgb(32.937622%, 94.514465%, 94.108582%)" offset="0.132813"/><stop stop-opacity="1" stop-color="rgb(32.641602%, 94.563293%, 93.739319%)" offset="0.140625"/><stop stop-opacity="1" stop-color="rgb(32.345581%, 94.612122%, 93.370056%)" offset="0.148438"/><stop stop-opacity="1" stop-color="rgb(32.049561%, 94.66095%, 93.000793%)" offset="0.15625"/><stop stop-opacity="1" stop-color="rgb(31.755066%, 94.711304%, 92.631531%)" offset="0.164063"/><stop stop-opacity="1" stop-color="rgb(31.459045%, 94.760132%, 92.262268%)" offset="0.171875"/><stop stop-opacity="1" stop-color="rgb(31.163025%, 94.80896%, 91.893005%)" offset="0.179688"/><stop stop-opacity="1" stop-color="rgb(30.86853%, 94.857788%, 91.523743%)" offset="0.1875"/><stop stop-opacity="1" stop-color="rgb(30.57251%, 94.908142%, 91.15448%)" offset="0.195313"/><stop stop-opacity="1" stop-color="rgb(30.276489%, 94.95697%, 90.785217%)" offset="0.203125"/><stop stop-opacity="1" stop-color="rgb(29.981995%, 95.005798%, 90.415955%)" offset="0.210938"/><stop stop-opacity="1" stop-color="rgb(29.685974%, 95.054626%, 90.045166%)" offset="0.21875"/><stop stop-opacity="1" stop-color="rgb(29.389954%, 95.10498%, 89.675903%)" offset="0.226563"/><stop stop-opacity="1" stop-color="rgb(29.095459%, 95.153809%, 89.306641%)" offset="0.234375"/><stop stop-opacity="1" stop-color="rgb(28.799438%, 95.202637%, 88.937378%)" offset="0.242188"/><stop stop-opacity="1" stop-color="rgb(28.503418%, 95.251465%, 88.568115%)" offset="0.25"/><stop stop-opacity="1" stop-color="rgb(28.208923%, 95.301819%, 88.198853%)" offset="0.257812"/><stop stop-opacity="1" stop-color="rgb(27.912903%, 95.350647%, 87.82959%)" offset="0.265625"/><stop stop-opacity="1" stop-color="rgb(27.616882%, 95.399475%, 87.460327%)" offset="0.273438"/><stop stop-opacity="1" stop-color="rgb(27.322388%, 95.448303%, 87.091064%)" offset="0.28125"/><stop stop-opacity="1" stop-color="rgb(27.026367%, 95.498657%, 86.721802%)" offset="0.289062"/><stop stop-opacity="1" stop-color="rgb(26.730347%, 95.547485%, 86.352539%)" offset="0.296875"/><stop stop-opacity="1" stop-color="rgb(26.434326%, 95.596313%, 85.98175%)" offset="0.304688"/><stop stop-opacity="1" stop-color="rgb(26.139832%, 95.645142%, 85.612488%)" offset="0.3125"/><stop stop-opacity="1" stop-color="rgb(25.843811%, 95.695496%, 85.243225%)" offset="0.320312"/><stop stop-opacity="1" stop-color="rgb(25.547791%, 95.744324%, 84.873962%)" offset="0.328125"/><stop stop-opacity="1" stop-color="rgb(25.253296%, 95.793152%, 84.5047%)" offset="0.335937"/><stop stop-opacity="1" stop-color="rgb(24.957275%, 95.84198%, 84.135437%)" offset="0.34375"/><stop stop-opacity="1" stop-color="rgb(24.661255%, 95.892334%, 83.766174%)" offset="0.351562"/><stop stop-opacity="1" stop-color="rgb(24.36676%, 95.941162%, 83.396912%)" offset="0.359375"/><stop stop-opacity="1" stop-color="rgb(24.07074%, 95.98999%, 83.027649%)" offset="0.367187"/><stop stop-opacity="1" stop-color="rgb(23.774719%, 96.038818%, 82.658386%)" offset="0.375"/><stop stop-opacity="1" stop-color="rgb(23.480225%, 96.089172%, 82.289124%)" offset="0.382812"/><stop stop-opacity="1" stop-color="rgb(23.184204%, 96.138%, 81.918335%)" offset="0.390625"/><stop stop-opacity="1" stop-color="rgb(22.888184%, 96.186829%, 81.549072%)" offset="0.398437"/><stop stop-opacity="1" stop-color="rgb(22.593689%, 96.235657%, 81.17981%)" offset="0.40625"/><stop stop-opacity="1" stop-color="rgb(22.297668%, 96.286011%, 80.810547%)" offset="0.414062"/><stop stop-opacity="1" stop-color="rgb(22.001648%, 96.334839%, 80.441284%)" offset="0.421875"/><stop stop-opacity="1" stop-color="rgb(21.707153%, 96.383667%, 80.072021%)" offset="0.429687"/><stop stop-opacity="1" stop-color="rgb(21.411133%, 96.432495%, 79.702759%)" offset="0.4375"/><stop stop-opacity="1" stop-color="rgb(21.115112%, 96.482849%, 79.333496%)" offset="0.445312"/><stop stop-opacity="1" stop-color="rgb(20.819092%, 96.531677%, 78.964233%)" offset="0.453125"/><stop stop-opacity="1" stop-color="rgb(20.524597%, 96.580505%, 78.594971%)" offset="0.460938"/><stop stop-opacity="1" stop-color="rgb(20.228577%, 96.630859%, 78.225708%)" offset="0.46875"/><stop stop-opacity="1" stop-color="rgb(19.932556%, 96.679688%, 77.854919%)" offset="0.476562"/><stop stop-opacity="1" stop-color="rgb(19.638062%, 96.728516%, 77.485657%)" offset="0.484375"/><stop stop-opacity="1" stop-color="rgb(19.342041%, 96.777344%, 77.116394%)" offset="0.492188"/><stop stop-opacity="1" stop-color="rgb(19.046021%, 96.827698%, 76.747131%)" offset="0.5"/><stop stop-opacity="1" stop-color="rgb(18.751526%, 96.876526%, 76.377869%)" offset="0.507812"/><stop stop-opacity="1" stop-color="rgb(18.455505%, 96.925354%, 76.008606%)" offset="0.515625"/><stop stop-opacity="1" stop-color="rgb(18.159485%, 96.974182%, 75.639343%)" offset="0.523438"/><stop stop-opacity="1" stop-color="rgb(17.86499%, 97.024536%, 75.270081%)" offset="0.53125"/><stop stop-opacity="1" stop-color="rgb(17.56897%, 97.073364%, 74.900818%)" offset="0.539062"/><stop stop-opacity="1" stop-color="rgb(17.272949%, 97.122192%, 74.531555%)" offset="0.546875"/><stop stop-opacity="1" stop-color="rgb(16.978455%, 97.171021%, 74.160767%)" offset="0.554687"/><stop stop-opacity="1" stop-color="rgb(16.682434%, 97.221375%, 73.791504%)" offset="0.5625"/><stop stop-opacity="1" stop-color="rgb(16.386414%, 97.270203%, 73.422241%)" offset="0.570312"/><stop stop-opacity="1" stop-color="rgb(16.091919%, 97.319031%, 73.052979%)" offset="0.578125"/><stop stop-opacity="1" stop-color="rgb(15.795898%, 97.367859%, 72.683716%)" offset="0.585938"/><stop stop-opacity="1" stop-color="rgb(15.499878%, 97.418213%, 72.314453%)" offset="0.59375"/><stop stop-opacity="1" stop-color="rgb(15.203857%, 97.467041%, 71.94519%)" offset="0.601562"/><stop stop-opacity="1" stop-color="rgb(14.909363%, 97.515869%, 71.575928%)" offset="0.609375"/><stop stop-opacity="1" stop-color="rgb(14.613342%, 97.564697%, 71.206665%)" offset="0.617188"/><stop stop-opacity="1" stop-color="rgb(14.317322%, 97.615051%, 70.837402%)" offset="0.625"/><stop stop-opacity="1" stop-color="rgb(14.022827%, 97.663879%, 70.46814%)" offset="0.632812"/><stop stop-opacity="1" stop-color="rgb(13.726807%, 97.712708%, 70.097351%)" offset="0.640625"/><stop stop-opacity="1" stop-color="rgb(13.430786%, 97.761536%, 69.728088%)" offset="0.648437"/><stop stop-opacity="1" stop-color="rgb(13.136292%, 97.81189%, 69.358826%)" offset="0.65625"/><stop stop-opacity="1" stop-color="rgb(12.840271%, 97.860718%, 68.989563%)" offset="0.664062"/><stop stop-opacity="1" stop-color="rgb(12.54425%, 97.909546%, 68.6203%)" offset="0.671875"/><stop stop-opacity="1" stop-color="rgb(12.249756%, 97.958374%, 68.251038%)" offset="0.679688"/><stop stop-opacity="1" stop-color="rgb(11.953735%, 98.008728%, 67.881775%)" offset="0.6875"/><stop stop-opacity="1" stop-color="rgb(11.657715%, 98.057556%, 67.512512%)" offset="0.695312"/><stop stop-opacity="1" stop-color="rgb(11.36322%, 98.106384%, 67.14325%)" offset="0.703125"/><stop stop-opacity="1" stop-color="rgb(11.0672%, 98.155212%, 66.773987%)" offset="0.710937"/><stop stop-opacity="1" stop-color="rgb(10.771179%, 98.205566%, 66.404724%)" offset="0.71875"/><stop stop-opacity="1" stop-color="rgb(10.476685%, 98.254395%, 66.033936%)" offset="0.726562"/><stop stop-opacity="1" stop-color="rgb(10.180664%, 98.303223%, 65.664673%)" offset="0.734375"/><stop stop-opacity="1" stop-color="rgb(9.884644%, 98.352051%, 65.29541%)" offset="0.742187"/><stop stop-opacity="1" stop-color="rgb(9.588623%, 98.402405%, 64.926147%)" offset="0.75"/><stop stop-opacity="1" stop-color="rgb(9.294128%, 98.451233%, 64.556885%)" offset="0.757812"/><stop stop-opacity="1" stop-color="rgb(8.998108%, 98.500061%, 64.187622%)" offset="0.765625"/><stop stop-opacity="1" stop-color="rgb(8.702087%, 98.548889%, 63.818359%)" offset="0.773437"/><stop stop-opacity="1" stop-color="rgb(8.407593%, 98.599243%, 63.449097%)" offset="0.78125"/><stop stop-opacity="1" stop-color="rgb(8.111572%, 98.648071%, 63.079834%)" offset="0.789062"/><stop stop-opacity="1" stop-color="rgb(7.815552%, 98.696899%, 62.710571%)" offset="0.796875"/><stop stop-opacity="1" stop-color="rgb(7.521057%, 98.745728%, 62.341309%)" offset="0.804688"/><stop stop-opacity="1" stop-color="rgb(7.225037%, 98.796082%, 61.97052%)" offset="0.8125"/><stop stop-opacity="1" stop-color="rgb(6.929016%, 98.84491%, 61.601257%)" offset="0.820312"/><stop stop-opacity="1" stop-color="rgb(6.634521%, 98.893738%, 61.231995%)" offset="0.828125"/><stop stop-opacity="1" stop-color="rgb(6.338501%, 98.942566%, 60.862732%)" offset="0.835938"/><stop stop-opacity="1" stop-color="rgb(6.04248%, 98.99292%, 60.493469%)" offset="0.84375"/><stop stop-opacity="1" stop-color="rgb(5.747986%, 99.041748%, 60.124207%)" offset="0.851562"/><stop stop-opacity="1" stop-color="rgb(5.451965%, 99.090576%, 59.754944%)" offset="0.859375"/><stop stop-opacity="1" stop-color="rgb(5.155945%, 99.14093%, 59.385681%)" offset="0.867187"/><stop stop-opacity="1" stop-color="rgb(4.86145%, 99.189758%, 59.016418%)" offset="0.875"/><stop stop-opacity="1" stop-color="rgb(4.56543%, 99.238586%, 58.647156%)" offset="0.882812"/><stop stop-opacity="1" stop-color="rgb(4.269409%, 99.287415%, 58.277893%)" offset="0.890625"/><stop stop-opacity="1" stop-color="rgb(3.973389%, 99.337769%, 57.907104%)" offset="0.898438"/><stop stop-opacity="1" stop-color="rgb(3.678894%, 99.386597%, 57.537842%)" offset="0.90625"/><stop stop-opacity="1" stop-color="rgb(3.382874%, 99.435425%, 57.168579%)" offset="0.914062"/><stop stop-opacity="1" stop-color="rgb(3.086853%, 99.484253%, 56.799316%)" offset="0.921875"/><stop stop-opacity="1" stop-color="rgb(2.792358%, 99.534607%, 56.430054%)" offset="0.929688"/><stop stop-opacity="1" stop-color="rgb(2.496338%, 99.583435%, 56.060791%)" offset="0.9375"/><stop stop-opacity="1" stop-color="rgb(2.200317%, 99.632263%, 55.691528%)" offset="0.945312"/><stop stop-opacity="1" stop-color="rgb(1.905823%, 99.681091%, 55.322266%)" offset="0.953125"/><stop stop-opacity="1" stop-color="rgb(1.609802%, 99.731445%, 54.953003%)" offset="0.960938"/><stop stop-opacity="1" stop-color="rgb(1.313782%, 99.780273%, 54.58374%)" offset="0.96875"/><stop stop-opacity="1" stop-color="rgb(1.019287%, 99.829102%, 54.214478%)" offset="0.976562"/><stop stop-opacity="1" stop-color="rgb(0.723267%, 99.87793%, 53.843689%)" offset="0.984375"/><stop stop-opacity="1" stop-color="rgb(0.427246%, 99.928284%, 53.474426%)" offset="0.992187"/><stop stop-opacity="1" stop-color="rgb(0.140381%, 99.975586%, 53.114319%)" offset="1"/></linearGradient><clipPath id="0163e03924"><path d="M 204 20 L 250 20 L 250 91 L 204 91 Z M 204 20 " clip-rule="nonzero"/></clipPath><clipPath id="685081da6b"><rect x="0" width="250" y="0" height="112"/></clipPath><clipPath id="c03b1aa818"><rect x="0" width="184" y="0" height="27"/></clipPath></defs><g clip-path="url(#377abe61c0)"><g clip-path="url(#dcb9650fc5)"><path fill="url(#71a965644f)" d="M 4.054688 132.546875 L 4.054688 237.511719 L 109.644531 237.511719 L 109.644531 132.546875 Z M 4.054688 132.546875 " fill-rule="nonzero"/></g></g><g transform="matrix(1, 0, 0, 1, 125, 111)"><g clip-path="url(#685081da6b)"><g fill="#545454" fill-opacity="1"><g transform="translate(6.546451, 88.675348)"><g><path d="M -4.300781 -0.398438 L 11.019531 -66.808594 L 11.296875 -68.125 L 22.105469 -68.125 L 22.308594 -66.625 L 26.425781 -32.730469 L 25.65625 -32.636719 L 24.898438 -32.785156 L 27.277344 -45.023438 L 32.300781 -66.808594 L 32.578125 -68.125 L 45.1875 -68.125 L 44.710938 -66.011719 L 29.390625 0.398438 L 29.113281 1.714844 L 19.058594 1.714844 L 18.855469 0.21875 L 14.628906 -35.113281 L 15.394531 -35.203125 L 16.152344 -35.054688 L 13.847656 -23.457031 L 8.335938 0.398438 L 8.058594 1.714844 L -4.777344 1.714844 Z M -2.792969 -0.0546875 L -3.058594 1.113281 L -3.8125 0.941406 L -3.8125 0.171875 L 7.433594 0.171875 L 7.433594 0.941406 L 6.675781 0.785156 L 6.832031 0.0507812 L 12.339844 -23.792969 L 13.09375 -23.621094 L 12.335938 -23.769531 L 14.636719 -35.355469 L 16.160156 -35.296875 L 20.386719 0.0078125 L 20.5 0.839844 L 19.734375 0.941406 L 19.734375 0.171875 L 28.488281 0.171875 L 28.488281 0.941406 L 27.730469 0.785156 L 27.886719 0.0507812 L 43.203125 -66.351562 L 43.46875 -67.519531 L 44.222656 -67.351562 L 44.222656 -66.578125 L 33.203125 -66.578125 L 33.203125 -67.351562 L 33.960938 -67.191406 L 33.804688 -66.460938 L 28.789062 -44.6875 L 28.035156 -44.863281 L 28.792969 -44.714844 L 26.417969 -32.488281 L 24.890625 -32.542969 L 20.777344 -66.417969 L 20.664062 -67.246094 L 21.429688 -67.351562 L 21.429688 -66.578125 L 11.921875 -66.578125 L 11.921875 -67.351562 L 12.679688 -67.191406 L 12.523438 -66.460938 L -2.792969 -0.0507812 Z M -2.792969 -0.0546875 "/></g></g></g><g fill="#545454" fill-opacity="1"><g transform="translate(46.880957, 88.675348)"><g><path d="M -4.300781 -0.398438 L 11.019531 -66.808594 L 11.296875 -68.125 L 37.074219 -68.125 L 36.597656 -66.011719 L 34.597656 -57.292969 L 34.320312 -55.976562 L 21.542969 -55.976562 L 21.542969 -56.75 L 22.296875 -56.574219 L 18.261719 -39.140625 L 17.507812 -39.316406 L 17.507812 -40.089844 L 30.089844 -40.089844 L 29.539062 -37.953125 L 28.789062 -38.144531 L 29.542969 -37.96875 L 27.542969 -29.441406 L 26.789062 -29.621094 L 27.546875 -29.460938 L 27.265625 -28.128906 L 15.09375 -28.128906 L 15.09375 -28.902344 L 15.84375 -28.726562 L 11.394531 -9.484375 L 10.640625 -9.660156 L 10.640625 -10.433594 L 24.210938 -10.433594 L 23.730469 -8.320312 L 21.730469 0.398438 L 21.453125 1.714844 L -4.777344 1.714844 Z M -2.792969 -0.0546875 L -3.058594 1.113281 L -3.8125 0.941406 L -3.8125 0.171875 L 20.828125 0.171875 L 20.828125 0.941406 L 20.070312 0.785156 L 20.226562 0.0546875 L 22.222656 -8.660156 L 22.488281 -9.828125 L 23.242188 -9.660156 L 23.242188 -8.886719 L 9.667969 -8.886719 L 14.476562 -29.675781 L 26.636719 -29.675781 L 26.636719 -28.902344 L 25.882812 -29.0625 L 26.035156 -29.785156 L 28.039062 -38.332031 L 28.34375 -39.507812 L 29.089844 -39.316406 L 29.089844 -38.542969 L 16.535156 -38.542969 L 20.929688 -57.519531 L 33.695312 -57.519531 L 33.695312 -56.75 L 32.9375 -56.90625 L 33.09375 -57.636719 L 35.089844 -66.351562 L 35.355469 -67.519531 L 36.109375 -67.351562 L 36.109375 -66.578125 L 11.921875 -66.578125 L 11.921875 -67.351562 L 12.679688 -67.191406 L 12.523438 -66.460938 L -2.792969 -0.0507812 Z M -2.792969 -0.0546875 "/></g></g></g><g fill="#545454" fill-opacity="1"><g transform="translate(77.669498, 88.675348)"><g><path d="M 13.984375 0.152344 L 12.285156 -16.976562 L 13.054688 -17.054688 L 13.746094 -16.707031 L 4.992188 0.761719 L 4.515625 1.714844 L -9.128906 1.714844 L -7.816406 -0.777344 L 10.480469 -36.160156 L 11.167969 -35.808594 L 10.398438 -35.730469 L 7.34375 -66.253906 L 7.136719 -68.125 L 19.15625 -68.125 L 19.296875 -66.589844 L 20.992188 -50.074219 L 20.222656 -49.996094 L 19.535156 -50.339844 L 27.984375 -67.167969 L 28.460938 -68.125 L 41.789062 -68.125 L 40.496094 -65.601562 L 22.757812 -31.863281 L 22.074219 -32.222656 L 22.839844 -32.300781 L 26.160156 -0.191406 L 26.367188 1.714844 L 14.121094 1.714844 L 13.984375 0.140625 Z M 15.523438 0.0078125 L 15.597656 0.875 L 14.828125 0.941406 L 14.828125 0.171875 L 25.507812 0.171875 L 25.507812 0.941406 L 24.738281 1.027344 L 24.625 -0.0351562 L 21.28125 -32.375 L 39.121094 -66.308594 L 39.835938 -67.703125 L 40.523438 -67.351562 L 40.523438 -66.578125 L 28.941406 -66.578125 L 28.941406 -67.351562 L 29.632812 -67.003906 L 29.367188 -66.476562 L 19.726562 -47.28125 L 17.757812 -66.449219 L 17.679688 -67.28125 L 18.449219 -67.351562 L 18.449219 -66.578125 L 8 -66.578125 L 8 -67.351562 L 8.765625 -67.4375 L 8.882812 -66.410156 L 11.960938 -35.65625 L -6.449219 -0.0546875 L -7.164062 1.304688 L -7.847656 0.941406 L -7.847656 0.171875 L 4.039062 0.171875 L 4.039062 0.941406 L 3.347656 0.597656 L 3.609375 0.0703125 L 13.5625 -19.789062 L 15.523438 0 Z M 15.523438 0.0078125 "/></g></g></g><g fill="#545454" fill-opacity="1"><g transform="translate(110.835103, 88.675348)"><g><path d="M -3.921875 -0.398438 L 11.394531 -66.808594 L 11.671875 -68.125 L 25.304688 -68.125 L 24.828125 -66.011719 L 9.507812 0.398438 L 9.230469 1.714844 L -4.402344 1.714844 Z M -2.414062 -0.0546875 L -2.679688 1.113281 L -3.433594 0.941406 L -3.433594 0.171875 L 8.601562 0.171875 L 8.601562 0.941406 L 7.847656 0.785156 L 8 0.0507812 L 23.320312 -66.351562 L 23.582031 -67.519531 L 24.335938 -67.351562 L 24.335938 -66.578125 L 12.300781 -66.578125 L 12.300781 -67.351562 L 13.058594 -67.191406 L 12.902344 -66.460938 L -2.417969 -0.0507812 Z M -2.414062 -0.0546875 "/></g></g></g><g fill="#545454" fill-opacity="1"><g transform="translate(131.662645, 88.675348)"><g><path d="M -4.300781 -0.398438 L 11.019531 -66.808594 L 11.296875 -68.125 L 24.925781 -68.125 L 24.449219 -66.011719 L 18.523438 -40.3125 L 17.773438 -40.484375 L 17.773438 -41.257812 L 24.902344 -41.257812 L 24.902344 -40.484375 L 24.148438 -40.660156 L 30.1875 -66.808594 L 30.464844 -68.125 L 44.09375 -68.125 L 43.617188 -66.011719 L 28.296875 0.398438 L 28.019531 1.714844 L 14.390625 1.714844 L 14.867188 -0.398438 L 21.734375 -30.09375 L 22.488281 -29.921875 L 22.488281 -29.148438 L 15.355469 -29.148438 L 15.355469 -29.921875 L 16.109375 -29.746094 L 9.128906 0.402344 L 8.851562 1.714844 L -4.777344 1.714844 Z M -2.792969 -0.0546875 L -3.058594 1.113281 L -3.8125 0.941406 L -3.8125 0.171875 L 8.226562 0.171875 L 8.226562 0.941406 L 7.46875 0.785156 L 7.625 0.0507812 L 14.742188 -30.695312 L 23.460938 -30.695312 L 16.375 -0.0546875 L 16.109375 1.113281 L 15.355469 0.941406 L 15.355469 0.171875 L 27.394531 0.171875 L 27.394531 0.941406 L 26.636719 0.785156 L 26.789062 0.0507812 L 42.109375 -66.351562 L 42.375 -67.519531 L 43.128906 -67.351562 L 43.128906 -66.578125 L 31.089844 -66.578125 L 31.089844 -67.351562 L 31.847656 -67.191406 L 31.691406 -66.460938 L 25.515625 -39.714844 L 16.800781 -39.714844 L 22.941406 -66.351562 L 23.207031 -67.519531 L 23.960938 -67.351562 L 23.960938 -66.578125 L 11.921875 -66.578125 L 11.921875 -67.351562 L 12.679688 -67.191406 L 12.523438 -66.460938 L -2.792969 -0.0507812 Z M -2.792969 -0.0546875 "/></g></g></g><g fill="#545454" fill-opacity="1"><g transform="translate(170.902941, 88.675348)"><g><path d="M 24.875 -2.351562 C 21.554688 0.863281 17.101562 2.472656 11.507812 2.472656 C 5.722656 2.472656 1.851562 0.730469 -0.109375 -2.753906 C -1.992188 -6.015625 -2.183594 -10.917969 -0.675781 -17.453125 L 10.753906 -66.847656 L 11.03125 -68.160156 L 24.664062 -68.160156 L 24.183594 -66.046875 L 12.828125 -16.84375 C 12.675781 -16.195312 12.539062 -15.566406 12.417969 -14.957031 C 12.292969 -14.347656 12.191406 -13.828125 12.117188 -13.394531 C 12.046875 -12.964844 11.984375 -12.566406 11.933594 -12.199219 C 11.890625 -11.855469 11.867188 -11.613281 11.867188 -11.46875 L 11.867188 -11.054688 L 11.09375 -11.054688 L 11.847656 -11.222656 C 11.894531 -11.011719 11.945312 -10.808594 12.003906 -10.613281 C 12.058594 -10.421875 12.121094 -10.246094 12.1875 -10.078125 C 12.25 -9.921875 12.324219 -9.773438 12.40625 -9.628906 L 12.507812 -9.449219 L 12.507812 -9.246094 C 12.507812 -9.445312 12.441406 -9.609375 12.3125 -9.738281 L 12.316406 -9.742188 C 12.296875 -9.753906 12.277344 -9.765625 12.265625 -9.769531 C 12.277344 -9.765625 12.292969 -9.761719 12.316406 -9.753906 C 12.386719 -9.730469 12.484375 -9.707031 12.609375 -9.679688 C 12.859375 -9.628906 13.171875 -9.601562 13.546875 -9.601562 C 14.515625 -9.601562 15.25 -9.855469 15.753906 -10.355469 C 16.082031 -10.6875 16.371094 -11.0625 16.613281 -11.480469 C 16.859375 -11.910156 17.066406 -12.375 17.222656 -12.875 C 17.648438 -14.121094 18.09375 -15.710938 18.566406 -17.652344 L 29.921875 -66.84375 L 30.199219 -68.160156 L 43.828125 -68.160156 L 43.351562 -66.046875 L 31.917969 -16.652344 C 30.453125 -10.214844 28.101562 -5.449219 24.871094 -2.347656 Z M 23.800781 -3.464844 C 26.808594 -6.347656 29.011719 -10.863281 30.414062 -17.003906 L 41.84375 -66.390625 L 42.109375 -67.558594 L 42.863281 -67.386719 L 42.863281 -66.617188 L 30.828125 -66.617188 L 30.828125 -67.386719 L 31.582031 -67.230469 L 31.429688 -66.496094 L 20.070312 -17.285156 C 19.585938 -15.300781 19.128906 -13.675781 18.695312 -12.40625 C 18.503906 -11.800781 18.253906 -11.230469 17.949219 -10.707031 C 17.640625 -10.167969 17.273438 -9.6875 16.847656 -9.265625 C 16.042969 -8.457031 14.941406 -8.054688 13.546875 -8.054688 C 13.066406 -8.054688 12.648438 -8.09375 12.292969 -8.167969 C 11.886719 -8.25 11.59375 -8.355469 11.417969 -8.484375 C 11.113281 -8.699219 10.960938 -8.953125 10.960938 -9.246094 L 11.734375 -9.246094 L 11.0625 -8.859375 C 10.945312 -9.066406 10.839844 -9.28125 10.753906 -9.503906 C 10.667969 -9.714844 10.589844 -9.941406 10.519531 -10.175781 C 10.453125 -10.40625 10.394531 -10.644531 10.339844 -10.886719 L 10.320312 -10.96875 L 10.320312 -11.46875 C 10.320312 -11.679688 10.347656 -11.992188 10.402344 -12.402344 C 10.453125 -12.789062 10.519531 -13.207031 10.59375 -13.65625 C 10.671875 -14.105469 10.773438 -14.640625 10.902344 -15.265625 C 11.027344 -15.890625 11.167969 -16.53125 11.320312 -17.191406 L 22.675781 -66.390625 L 22.941406 -67.558594 L 23.695312 -67.386719 L 23.695312 -66.617188 L 11.660156 -66.617188 L 11.660156 -67.386719 L 12.414062 -67.230469 L 12.261719 -66.496094 L 0.828125 -17.109375 C -0.585938 -10.964844 -0.449219 -6.433594 1.238281 -3.511719 C 2.902344 -0.554688 6.324219 0.925781 11.507812 0.925781 C 16.683594 0.925781 20.78125 -0.535156 23.800781 -3.460938 Z M 23.800781 -3.464844 "/></g></g></g><g clip-path="url(#0163e03924)"><g fill="#545454" fill-opacity="1"><g transform="translate(209.388616, 88.675348)"><g><path d="M 38.824219 -48.953125 C 37.292969 -42.273438 34.605469 -37.785156 30.769531 -35.484375 L 30.375 -36.148438 L 30.820312 -36.777344 C 34.550781 -34.136719 35.417969 -28.585938 33.425781 -20.121094 L 33.050781 -18.433594 C 32.234375 -14.980469 31.226562 -11.988281 30.035156 -9.460938 C 28.828125 -6.902344 27.410156 -4.8125 25.789062 -3.1875 C 22.492188 0.0820312 18.035156 1.714844 12.414062 1.714844 L -4.402344 1.714844 L -3.921875 -0.398438 L 11.394531 -66.808594 L 11.671875 -68.125 L 27.429688 -68.125 C 32.988281 -68.125 36.710938 -66.714844 38.601562 -63.894531 C 40.410156 -61.195312 40.636719 -56.90625 39.277344 -51.027344 L 38.824219 -48.960938 Z M 37.316406 -49.292969 L 37.769531 -51.375 C 39.027344 -56.816406 38.875 -60.703125 37.316406 -63.035156 C 35.734375 -65.398438 32.4375 -66.578125 27.429688 -66.578125 L 12.300781 -66.578125 L 12.300781 -67.351562 L 13.058594 -67.191406 L 12.902344 -66.460938 L -2.414062 -0.0546875 L -2.679688 1.113281 L -3.433594 0.941406 L -3.433594 0.171875 L 12.414062 0.171875 C 17.609375 0.171875 21.703125 -1.3125 24.695312 -4.28125 C 26.191406 -5.777344 27.507812 -7.722656 28.636719 -10.121094 C 29.785156 -12.550781 30.753906 -15.433594 31.542969 -18.769531 L 31.921875 -20.476562 C 33.753906 -28.261719 33.089844 -33.277344 29.925781 -35.515625 L 28.960938 -36.199219 L 29.976562 -36.808594 C 33.433594 -38.886719 35.882812 -43.046875 37.316406 -49.300781 Z M 10.828125 -9.5625 L 13.242188 -9.5625 C 14.707031 -9.5625 15.828125 -10.046875 16.601562 -11.011719 C 17.5625 -12.179688 18.429688 -14.429688 19.207031 -17.757812 L 20.453125 -23.117188 C 21.15625 -26.214844 21.367188 -28.335938 21.09375 -29.476562 C 21.039062 -29.730469 20.921875 -29.914062 20.75 -30.027344 C 20.523438 -30.171875 20.097656 -30.242188 19.46875 -30.242188 L 15.960938 -30.242188 L 15.960938 -31.015625 L 16.714844 -30.839844 L 11.582031 -8.617188 L 10.828125 -8.792969 Z M 9.855469 -8.019531 L 15.34375 -31.789062 L 19.46875 -31.789062 C 20.402344 -31.789062 21.105469 -31.632812 21.585938 -31.324219 C 22.117188 -30.984375 22.453125 -30.488281 22.597656 -29.835938 C 22.929688 -28.460938 22.714844 -26.105469 21.957031 -22.765625 L 20.710938 -17.40625 C 19.878906 -13.84375 18.910156 -11.390625 17.808594 -10.042969 C 16.722656 -8.691406 15.199219 -8.019531 13.242188 -8.019531 Z M 18.148438 -41.257812 L 20.714844 -41.257812 C 21.855469 -41.257812 22.652344 -41.578125 23.101562 -42.214844 C 23.773438 -43.140625 24.488281 -45.214844 25.246094 -48.433594 L 26.148438 -52.390625 C 26.402344 -53.519531 26.546875 -54.433594 26.582031 -55.136719 C 26.613281 -55.734375 26.570312 -56.128906 26.460938 -56.324219 L 26.453125 -56.332031 L 26.449219 -56.339844 C 26.394531 -56.441406 26.261719 -56.53125 26.054688 -56.601562 C 25.738281 -56.710938 25.304688 -56.765625 24.75 -56.765625 L 22.109375 -56.765625 L 22.109375 -57.539062 L 22.863281 -57.367188 L 18.902344 -40.3125 L 18.148438 -40.484375 Z M 17.175781 -39.714844 L 21.496094 -58.3125 L 24.75 -58.3125 C 26.339844 -58.3125 27.359375 -57.902344 27.808594 -57.082031 L 27.128906 -56.710938 L 27.796875 -57.097656 C 28.0625 -56.636719 28.171875 -55.957031 28.128906 -55.058594 C 28.085938 -54.265625 27.929688 -53.261719 27.65625 -52.046875 L 26.75 -48.082031 C 25.945312 -44.660156 25.152344 -42.40625 24.363281 -41.324219 C 23.605469 -40.25 22.390625 -39.714844 20.714844 -39.714844 Z M 17.175781 -39.714844 "/></g></g></g></g><g fill="#ffffff" fill-opacity="1"><g transform="translate(6.546451, 88.675348)"><g><path d="M -3.546875 -0.21875 L 11.765625 -66.640625 L 11.921875 -67.359375 L 21.421875 -67.359375 L 21.546875 -66.53125 L 25.65625 -32.640625 L 28.03125 -44.859375 L 33.046875 -66.640625 L 33.203125 -67.359375 L 44.21875 -67.359375 L 43.953125 -66.1875 L 28.640625 0.21875 L 28.484375 0.9375 L 19.734375 0.9375 L 19.609375 0.109375 L 15.390625 -35.203125 L 13.09375 -23.625 L 7.578125 0.21875 L 7.421875 0.9375 L -3.8125 0.9375 Z M -3.546875 -0.21875 "/></g></g></g><g fill="#ffffff" fill-opacity="1"><g transform="translate(46.880957, 88.675348)"><g><path d="M -3.546875 -0.21875 L 11.765625 -66.640625 L 11.921875 -67.359375 L 36.109375 -67.359375 L 35.84375 -66.1875 L 33.84375 -57.46875 L 33.6875 -56.75 L 21.546875 -56.75 L 17.5 -39.3125 L 29.09375 -39.3125 L 28.78125 -38.15625 L 26.78125 -29.625 L 26.640625 -28.90625 L 15.09375 -28.90625 L 10.640625 -9.65625 L 23.234375 -9.65625 L 22.96875 -8.484375 L 20.96875 0.21875 L 20.828125 0.9375 L -3.8125 0.9375 Z M -3.546875 -0.21875 "/></g></g></g><g fill="#ffffff" fill-opacity="1"><g transform="translate(77.669498, 88.675348)"><g><path d="M 14.75 0.078125 L 13.046875 -17.0625 L 4.296875 0.421875 L 4.03125 0.9375 L -7.859375 0.9375 L -7.140625 -0.421875 L 11.15625 -35.8125 L 8.109375 -66.34375 L 8 -67.359375 L 18.453125 -67.359375 L 18.515625 -66.53125 L 20.21875 -50 L 28.671875 -66.828125 L 28.9375 -67.359375 L 40.515625 -67.359375 L 39.796875 -65.953125 L 22.0625 -32.21875 L 25.390625 -0.109375 L 25.5 0.9375 L 14.828125 0.9375 Z M 14.75 0.078125 "/></g></g></g><g fill="#ffffff" fill-opacity="1"><g transform="translate(110.835103, 88.675348)"><g><path d="M -3.171875 -0.21875 L 12.140625 -66.640625 L 12.296875 -67.359375 L 24.328125 -67.359375 L 24.0625 -66.1875 L 8.75 0.21875 L 8.59375 0.9375 L -3.4375 0.9375 Z M -3.171875 -0.21875 "/></g></g></g><g fill="#ffffff" fill-opacity="1"><g transform="translate(131.662645, 88.675348)"><g><path d="M -3.546875 -0.21875 L 11.765625 -66.640625 L 11.921875 -67.359375 L 23.953125 -67.359375 L 23.6875 -66.1875 L 17.765625 -40.484375 L 24.90625 -40.484375 L 30.9375 -66.640625 L 31.09375 -67.359375 L 43.125 -67.359375 L 42.859375 -66.1875 L 27.546875 0.21875 L 27.390625 0.9375 L 15.359375 0.9375 L 15.609375 -0.21875 L 22.484375 -29.921875 L 15.359375 -29.921875 L 8.375 0.21875 L 8.21875 0.9375 L -3.8125 0.9375 Z M -3.546875 -0.21875 "/></g></g></g><g fill="#ffffff" fill-opacity="1"><g transform="translate(170.902941, 88.675348)"><g><path d="M 24.328125 -2.90625 C 21.160156 0.164062 16.882812 1.703125 11.5 1.703125 C 6.019531 1.703125 2.375 0.09375 0.5625 -3.125 C -1.226562 -6.21875 -1.394531 -10.9375 0.0625 -17.28125 L 11.5 -66.671875 L 11.65625 -67.390625 L 23.6875 -67.390625 L 23.421875 -66.21875 L 12.0625 -17.015625 C 11.914062 -16.359375 11.78125 -15.722656 11.65625 -15.109375 C 11.53125 -14.492188 11.425781 -13.96875 11.34375 -13.53125 C 11.269531 -13.09375 11.207031 -12.679688 11.15625 -12.296875 C 11.113281 -11.921875 11.09375 -11.644531 11.09375 -11.46875 C 11.09375 -11.289062 11.09375 -11.15625 11.09375 -11.0625 C 11.132812 -10.832031 11.1875 -10.609375 11.25 -10.390625 C 11.320312 -10.179688 11.394531 -9.984375 11.46875 -9.796875 C 11.539062 -9.609375 11.628906 -9.425781 11.734375 -9.25 C 11.734375 -9.21875 11.773438 -9.171875 11.859375 -9.109375 C 11.953125 -9.046875 12.148438 -8.984375 12.453125 -8.921875 C 12.753906 -8.859375 13.117188 -8.828125 13.546875 -8.828125 C 14.722656 -8.828125 15.640625 -9.15625 16.296875 -9.8125 C 16.671875 -10.1875 16.992188 -10.613281 17.265625 -11.09375 C 17.546875 -11.570312 17.773438 -12.085938 17.953125 -12.640625 C 18.378906 -13.898438 18.832031 -15.507812 19.3125 -17.46875 L 30.671875 -66.671875 L 30.828125 -67.390625 L 42.859375 -67.390625 L 42.59375 -66.21875 L 31.15625 -16.828125 C 29.726562 -10.535156 27.453125 -5.894531 24.328125 -2.90625 Z M 24.328125 -2.90625 "/></g></g></g><g fill="#ffffff" fill-opacity="1"><g transform="translate(209.388616, 88.675348)"><g><path d="M 38.0625 -49.125 C 36.582031 -42.664062 34.019531 -38.34375 30.375 -36.15625 C 33.820312 -33.707031 34.585938 -28.421875 32.671875 -20.296875 L 32.296875 -18.609375 C 31.492188 -15.210938 30.503906 -12.273438 29.328125 -9.796875 C 28.160156 -7.316406 26.796875 -5.296875 25.234375 -3.734375 C 22.085938 -0.617188 17.8125 0.9375 12.40625 0.9375 L -3.4375 0.9375 L -3.171875 -0.21875 L 12.140625 -66.640625 L 12.296875 -67.359375 L 27.421875 -67.359375 C 32.703125 -67.359375 36.210938 -66.0625 37.953125 -63.46875 C 39.640625 -60.957031 39.828125 -56.867188 38.515625 -51.203125 Z M 10.828125 -8.796875 L 13.234375 -8.796875 C 14.941406 -8.796875 16.265625 -9.375 17.203125 -10.53125 C 18.234375 -11.789062 19.148438 -14.140625 19.953125 -17.578125 L 21.203125 -22.9375 C 21.929688 -26.15625 22.144531 -28.394531 21.84375 -29.65625 C 21.738281 -30.113281 21.507812 -30.453125 21.15625 -30.671875 C 20.8125 -30.898438 20.25 -31.015625 19.46875 -31.015625 L 15.953125 -31.015625 Z M 18.140625 -40.484375 L 20.703125 -40.484375 C 22.117188 -40.484375 23.128906 -40.910156 23.734375 -41.765625 C 24.460938 -42.773438 25.21875 -44.941406 26 -48.265625 L 26.90625 -52.21875 C 27.425781 -54.5625 27.5 -56.0625 27.125 -56.71875 C 26.820312 -57.269531 26.03125 -57.546875 24.75 -57.546875 L 22.109375 -57.546875 Z M 18.140625 -40.484375 "/></g></g></g></g></g><g transform="matrix(1, 0, 0, 1, 122, 215)"><g clip-path="url(#c03b1aa818)"><g fill="#545454" fill-opacity="1"><g transform="translate(0.304906, 20.467235)"><g><path d="M 14.039062 -17.691406 L 17.308594 -17.691406 L 17.308594 0.625 L 11.734375 0.625 L 4.984375 -12.425781 L 4.300781 -13.84375 C 4.078125 -14.304688 3.886719 -14.75 3.726562 -15.179688 L 4.3125 -15.398438 L 4.9375 -15.398438 L 4.9375 0.625 L 1.042969 0.625 L 1.042969 -17.691406 L 6.617188 -17.691406 L 13.386719 -4.597656 L 12.832031 -4.3125 L 13.378906 -4.613281 C 13.578125 -4.253906 13.785156 -3.824219 14.007812 -3.316406 C 14.222656 -2.828125 14.425781 -2.359375 14.613281 -1.910156 L 14.039062 -1.667969 L 13.414062 -1.667969 L 13.414062 -17.691406 Z M 14.039062 -16.441406 L 14.039062 -17.066406 L 14.664062 -17.066406 L 14.664062 -1.667969 L 13.460938 -1.425781 C 13.273438 -1.867188 13.074219 -2.332031 12.863281 -2.816406 C 12.65625 -3.285156 12.464844 -3.683594 12.285156 -4.011719 L 12.28125 -4.015625 L 5.679688 -16.777344 L 6.238281 -17.066406 L 6.238281 -16.441406 L 1.667969 -16.441406 L 1.667969 -17.066406 L 2.292969 -17.066406 L 2.292969 0 L 1.667969 0 L 1.667969 -0.625 L 4.3125 -0.625 L 4.3125 0 L 3.6875 0 L 3.6875 -15.398438 L 4.898438 -15.617188 C 5.042969 -15.226562 5.222656 -14.816406 5.425781 -14.386719 L 6.105469 -12.976562 L 5.542969 -12.703125 L 6.097656 -12.992188 L 12.667969 -0.289062 L 12.113281 0 L 12.113281 -0.625 L 16.683594 -0.625 L 16.683594 0 L 16.054688 0 L 16.054688 -17.066406 L 16.683594 -17.066406 L 16.683594 -16.441406 Z M 14.039062 -16.441406 "/></g></g></g><g fill="#545454" fill-opacity="1"><g transform="translate(18.648775, 20.467235)"><g><path d="M 4.3125 -2.753906 L 15.253906 -2.753906 L 15.253906 0.625 L 1.042969 0.625 L 1.042969 -17.691406 L 15.175781 -17.691406 L 15.175781 -14.3125 L 4.3125 -14.3125 L 4.3125 -14.9375 L 4.9375 -14.9375 L 4.9375 -9.777344 L 4.3125 -9.777344 L 4.3125 -10.402344 L 14.40625 -10.402344 L 14.40625 -7.074219 L 4.3125 -7.074219 L 4.3125 -7.699219 L 4.9375 -7.699219 L 4.9375 -2.128906 L 4.3125 -2.128906 Z M 3.6875 -1.503906 L 3.6875 -8.324219 L 13.78125 -8.324219 L 13.78125 -7.699219 L 13.15625 -7.699219 L 13.15625 -9.777344 L 13.78125 -9.777344 L 13.78125 -9.152344 L 3.6875 -9.152344 L 3.6875 -15.5625 L 14.550781 -15.5625 L 14.550781 -14.9375 L 13.925781 -14.9375 L 13.925781 -17.066406 L 14.550781 -17.066406 L 14.550781 -16.441406 L 1.667969 -16.441406 L 1.667969 -17.066406 L 2.292969 -17.066406 L 2.292969 0 L 1.667969 0 L 1.667969 -0.625 L 14.628906 -0.625 L 14.628906 0 L 14.003906 0 L 14.003906 -2.128906 L 14.628906 -2.128906 L 14.628906 -1.503906 Z M 3.6875 -1.503906 "/></g></g></g><g fill="#545454" fill-opacity="1"><g transform="translate(34.811903, 20.467235)"><g><path d="M 16 -17.066406 L 16 -14.3125 L 9.46875 -14.3125 L 9.46875 -14.9375 L 10.097656 -14.9375 L 10.097656 0.625 L 6.199219 0.625 L 6.199219 -14.9375 L 6.828125 -14.9375 L 6.828125 -14.3125 L 0.273438 -14.3125 L 0.273438 -17.691406 L 16 -17.691406 Z M 14.746094 -17.066406 L 15.371094 -17.066406 L 15.371094 -16.441406 L 0.898438 -16.441406 L 0.898438 -17.066406 L 1.523438 -17.066406 L 1.523438 -14.9375 L 0.898438 -14.9375 L 0.898438 -15.5625 L 7.453125 -15.5625 L 7.453125 0 L 6.828125 0 L 6.828125 -0.625 L 9.46875 -0.625 L 9.46875 0 L 8.84375 0 L 8.84375 -15.5625 L 15.371094 -15.5625 L 15.371094 -14.9375 L 14.746094 -14.9375 Z M 14.746094 -17.066406 "/></g></g></g><g fill="#545454" fill-opacity="1"><g transform="translate(51.077658, 20.467235)"><g><path d="M 22.277344 -17.691406 L 25.695312 -17.691406 L 21.703125 0.625 L 16.191406 0.625 L 12.429688 -14.8125 L 13.039062 -14.960938 L 13.644531 -14.8125 L 9.882812 0.625 L 4.371094 0.625 L 0.378906 -17.691406 L 4.328125 -17.691406 L 7.796875 -1.75 L 7.1875 -1.617188 L 6.578125 -1.765625 L 10.46875 -17.691406 L 15.632812 -17.691406 L 19.523438 -1.765625 L 18.914062 -1.617188 L 18.304688 -1.75 L 21.773438 -17.691406 Z M 22.277344 -16.441406 L 22.277344 -17.066406 L 22.886719 -16.933594 L 19.527344 -1.484375 L 18.304688 -1.46875 L 14.535156 -16.917969 L 15.140625 -17.066406 L 15.140625 -16.441406 L 10.957031 -16.441406 L 10.957031 -17.066406 L 11.566406 -16.917969 L 7.792969 -1.46875 L 6.574219 -1.484375 L 3.210938 -16.933594 L 3.824219 -17.066406 L 3.824219 -16.441406 L 1.15625 -16.441406 L 1.15625 -17.066406 L 1.765625 -17.199219 L 5.488281 -0.132812 L 4.875 0 L 4.875 -0.625 L 9.394531 -0.625 L 9.394531 0 L 8.785156 -0.148438 L 12.429688 -15.109375 L 13.644531 -15.109375 L 17.289062 -0.148438 L 16.683594 0 L 16.683594 -0.625 L 21.199219 -0.625 L 21.199219 0 L 20.585938 -0.132812 L 24.308594 -17.199219 L 24.917969 -17.066406 L 24.917969 -16.441406 Z M 22.277344 -16.441406 "/></g></g></g><g fill="#545454" fill-opacity="1"><g transform="translate(77.143922, 20.467235)"><g><path d="M 10.058594 1.0625 C 7.90625 1.0625 6.140625 0.632812 4.761719 -0.226562 C 3.378906 -1.089844 2.363281 -2.261719 1.722656 -3.742188 C 1.097656 -5.179688 0.785156 -6.78125 0.785156 -8.546875 C 0.785156 -10.292969 1.097656 -11.882812 1.722656 -13.3125 C 2.363281 -14.78125 3.375 -15.957031 4.757812 -16.835938 C 6.136719 -17.714844 7.902344 -18.15625 10.058594 -18.15625 C 11.667969 -18.15625 13.058594 -17.902344 14.234375 -17.398438 C 15.417969 -16.886719 16.390625 -16.183594 17.148438 -15.289062 C 17.894531 -14.402344 18.449219 -13.375 18.808594 -12.207031 C 19.160156 -11.0625 19.335938 -9.839844 19.335938 -8.546875 C 19.335938 -6.800781 19.023438 -5.207031 18.398438 -3.765625 C 17.757812 -2.289062 16.742188 -1.113281 15.359375 -0.242188 C 13.984375 0.628906 12.21875 1.0625 10.058594 1.0625 Z M 10.058594 -0.1875 C 11.976562 -0.1875 13.519531 -0.558594 14.691406 -1.300781 C 15.859375 -2.035156 16.710938 -3.023438 17.25 -4.265625 C 17.804688 -5.546875 18.082031 -6.972656 18.082031 -8.546875 C 18.082031 -9.714844 17.925781 -10.8125 17.609375 -11.839844 C 17.300781 -12.84375 16.828125 -13.726562 16.191406 -14.480469 C 15.5625 -15.226562 14.746094 -15.816406 13.738281 -16.246094 C 12.722656 -16.683594 11.496094 -16.902344 10.058594 -16.902344 C 8.144531 -16.902344 6.601562 -16.527344 5.429688 -15.78125 C 4.261719 -15.039062 3.410156 -14.046875 2.871094 -12.8125 C 2.316406 -11.539062 2.039062 -10.117188 2.039062 -8.546875 C 2.039062 -6.957031 2.316406 -5.519531 2.871094 -4.238281 C 3.410156 -3 4.261719 -2.015625 5.425781 -1.289062 C 6.597656 -0.554688 8.144531 -0.1875 10.058594 -0.1875 Z M 4.808594 -8.546875 C 4.808594 -6.449219 5.222656 -4.886719 6.046875 -3.855469 C 6.835938 -2.867188 8.171875 -2.371094 10.058594 -2.371094 C 11.945312 -2.371094 13.285156 -2.867188 14.074219 -3.855469 C 14.898438 -4.886719 15.3125 -6.449219 15.3125 -8.546875 C 15.3125 -10.640625 14.898438 -12.203125 14.074219 -13.238281 C 13.285156 -14.226562 11.945312 -14.722656 10.058594 -14.722656 C 8.171875 -14.722656 6.835938 -14.226562 6.046875 -13.238281 C 5.222656 -12.203125 4.808594 -10.640625 4.808594 -8.546875 Z M 3.558594 -8.546875 C 3.558594 -10.933594 4.0625 -12.757812 5.066406 -14.019531 C 6.109375 -15.320312 7.773438 -15.972656 10.058594 -15.972656 C 12.347656 -15.972656 14.011719 -15.320312 15.054688 -14.019531 C 16.058594 -12.757812 16.5625 -10.933594 16.5625 -8.546875 C 16.5625 -6.160156 16.058594 -4.335938 15.054688 -3.074219 C 14.011719 -1.769531 12.347656 -1.121094 10.058594 -1.121094 C 7.773438 -1.121094 6.109375 -1.769531 5.066406 -3.074219 C 4.0625 -4.335938 3.558594 -6.160156 3.558594 -8.546875 Z M 3.558594 -8.546875 "/></g></g></g><g fill="#545454" fill-opacity="1"><g transform="translate(97.258039, 20.467235)"><g><path d="M 15.382812 -4.414062 L 15.382812 -2.796875 C 15.382812 -2.152344 15.421875 -1.609375 15.5 -1.175781 C 15.582031 -0.726562 15.65625 -0.390625 15.71875 -0.171875 L 15.945312 0.625 L 12.0625 0.625 L 11.925781 0.183594 C 11.851562 -0.0625 11.769531 -0.421875 11.6875 -0.894531 C 11.605469 -1.375 11.566406 -1.972656 11.566406 -2.695312 L 11.566406 -4.027344 C 11.566406 -5.058594 11.328125 -5.765625 10.851562 -6.144531 C 10.332031 -6.558594 9.589844 -6.765625 8.625 -6.765625 L 4.3125 -6.765625 L 4.3125 -7.390625 L 4.9375 -7.390625 L 4.9375 0.625 L 1.042969 0.625 L 1.042969 -17.691406 L 9.828125 -17.691406 C 11.765625 -17.691406 13.261719 -17.226562 14.3125 -16.289062 C 15.386719 -15.335938 15.921875 -14.054688 15.921875 -12.445312 C 15.921875 -11.128906 15.554688 -10.042969 14.824219 -9.179688 C 14.101562 -8.332031 13.199219 -7.773438 12.109375 -7.503906 L 11.960938 -8.109375 L 12.152344 -8.707031 C 12.785156 -8.5 13.332031 -8.25 13.789062 -7.957031 C 14.296875 -7.628906 14.691406 -7.175781 14.972656 -6.601562 C 15.246094 -6.042969 15.382812 -5.316406 15.382812 -4.414062 Z M 14.132812 -4.414062 C 14.132812 -5.121094 14.035156 -5.667969 13.847656 -6.050781 C 13.667969 -6.417969 13.421875 -6.703125 13.109375 -6.902344 C 12.742188 -7.140625 12.296875 -7.34375 11.765625 -7.515625 L 9.6875 -8.1875 L 11.808594 -8.71875 C 12.636719 -8.925781 13.324219 -9.347656 13.871094 -9.992188 C 14.402344 -10.617188 14.671875 -11.4375 14.671875 -12.445312 C 14.671875 -13.679688 14.273438 -14.648438 13.480469 -15.355469 C 12.667969 -16.078125 11.449219 -16.441406 9.828125 -16.441406 L 1.667969 -16.441406 L 1.667969 -17.066406 L 2.292969 -17.066406 L 2.292969 0 L 1.667969 0 L 1.667969 -0.625 L 4.3125 -0.625 L 4.3125 0 L 3.6875 0 L 3.6875 -8.015625 L 8.625 -8.015625 C 9.882812 -8.015625 10.882812 -7.71875 11.632812 -7.125 C 12.421875 -6.492188 12.816406 -5.460938 12.816406 -4.027344 L 12.816406 -2.695312 C 12.816406 -2.046875 12.851562 -1.515625 12.921875 -1.109375 C 12.996094 -0.6875 13.0625 -0.382812 13.121094 -0.183594 L 12.523438 0 L 12.523438 -0.625 L 15.117188 -0.625 L 15.117188 0 L 14.515625 0.171875 C 14.441406 -0.0859375 14.359375 -0.460938 14.269531 -0.953125 C 14.175781 -1.460938 14.132812 -2.074219 14.132812 -2.796875 Z M 9.648438 -9.96875 C 10.542969 -9.96875 11.132812 -10.148438 11.417969 -10.511719 C 11.738281 -10.917969 11.898438 -11.503906 11.898438 -12.265625 C 11.898438 -12.933594 11.722656 -13.441406 11.375 -13.789062 C 11.027344 -14.136719 10.417969 -14.3125 9.546875 -14.3125 L 4.3125 -14.3125 L 4.3125 -14.9375 L 4.9375 -14.9375 L 4.9375 -9.339844 L 4.3125 -9.339844 L 4.3125 -9.96875 Z M 9.648438 -8.714844 L 3.6875 -8.714844 L 3.6875 -15.5625 L 9.546875 -15.5625 C 10.761719 -15.5625 11.667969 -15.265625 12.261719 -14.671875 C 12.851562 -14.082031 13.148438 -13.277344 13.148438 -12.265625 C 13.148438 -11.214844 12.898438 -10.371094 12.398438 -9.738281 C 11.863281 -9.054688 10.949219 -8.714844 9.648438 -8.714844 Z M 9.648438 -8.714844 "/></g></g></g><g fill="#545454" fill-opacity="1"><g transform="translate(114.088219, 20.467235)"><g><path d="M 9.71875 -10.25 L 17 -0.332031 L 17 0.625 L 12.84375 0.625 L 6.933594 -7.617188 L 7.441406 -7.980469 L 7.898438 -7.550781 L 4.765625 -4.242188 L 4.3125 -4.671875 L 4.9375 -4.671875 L 4.9375 0.625 L 1.042969 0.625 L 1.042969 -17.691406 L 4.9375 -17.691406 L 4.9375 -8.03125 L 4.3125 -8.03125 L 3.847656 -8.453125 L 12.246094 -17.691406 L 17.4375 -17.691406 L 9.667969 -9.453125 L 9.214844 -9.878906 Z M 8.402344 -9.929688 L 15.535156 -17.496094 L 15.988281 -17.066406 L 15.988281 -16.441406 L 12.523438 -16.441406 L 12.523438 -17.066406 L 12.988281 -16.644531 L 3.6875 -6.414062 L 3.6875 -17.066406 L 4.3125 -17.066406 L 4.3125 -16.441406 L 1.667969 -16.441406 L 1.667969 -17.066406 L 2.292969 -17.066406 L 2.292969 0 L 1.667969 0 L 1.667969 -0.625 L 4.3125 -0.625 L 4.3125 0 L 3.6875 0 L 3.6875 -4.917969 L 7.507812 -8.960938 L 13.675781 -0.363281 L 13.164062 0 L 13.164062 -0.625 L 16.375 -0.625 L 16.375 0 L 15.746094 0 L 15.746094 -0.128906 L 16.375 -0.128906 L 15.871094 0.242188 L 8.710938 -9.511719 Z M 8.402344 -9.929688 "/></g></g></g><g fill="#545454" fill-opacity="1"><g transform="translate(131.611104, 20.467235)"><g><path d="M 11.292969 -14.3125 L 7.800781 -14.3125 L 7.800781 -14.9375 L 8.425781 -14.9375 L 8.425781 -2.128906 L 7.800781 -2.128906 L 7.800781 -2.753906 L 11.917969 -2.753906 L 11.917969 0.625 L 1.042969 0.625 L 1.042969 -2.753906 L 5.160156 -2.753906 L 5.160156 -2.128906 L 4.53125 -2.128906 L 4.53125 -14.9375 L 5.160156 -14.9375 L 5.160156 -14.3125 L 1.042969 -14.3125 L 1.042969 -17.691406 L 11.917969 -17.691406 L 11.917969 -14.3125 Z M 11.292969 -15.5625 L 11.292969 -14.9375 L 10.667969 -14.9375 L 10.667969 -17.066406 L 11.292969 -17.066406 L 11.292969 -16.441406 L 1.667969 -16.441406 L 1.667969 -17.066406 L 2.292969 -17.066406 L 2.292969 -14.9375 L 1.667969 -14.9375 L 1.667969 -15.5625 L 5.785156 -15.5625 L 5.785156 -1.503906 L 1.667969 -1.503906 L 1.667969 -2.128906 L 2.292969 -2.128906 L 2.292969 0 L 1.667969 0 L 1.667969 -0.625 L 11.292969 -0.625 L 11.292969 0 L 10.667969 0 L 10.667969 -2.128906 L 11.292969 -2.128906 L 11.292969 -1.503906 L 7.175781 -1.503906 L 7.175781 -15.5625 Z M 11.292969 -15.5625 "/></g></g></g><g fill="#545454" fill-opacity="1"><g transform="translate(144.567269, 20.467235)"><g><path d="M 14.039062 -17.691406 L 17.308594 -17.691406 L 17.308594 0.625 L 11.734375 0.625 L 4.984375 -12.425781 L 4.300781 -13.84375 C 4.078125 -14.304688 3.886719 -14.75 3.726562 -15.179688 L 4.3125 -15.398438 L 4.9375 -15.398438 L 4.9375 0.625 L 1.042969 0.625 L 1.042969 -17.691406 L 6.617188 -17.691406 L 13.386719 -4.597656 L 12.832031 -4.3125 L 13.378906 -4.613281 C 13.578125 -4.253906 13.785156 -3.824219 14.007812 -3.316406 C 14.222656 -2.828125 14.425781 -2.359375 14.613281 -1.910156 L 14.039062 -1.667969 L 13.414062 -1.667969 L 13.414062 -17.691406 Z M 14.039062 -16.441406 L 14.039062 -17.066406 L 14.664062 -17.066406 L 14.664062 -1.667969 L 13.460938 -1.425781 C 13.273438 -1.867188 13.074219 -2.332031 12.863281 -2.816406 C 12.65625 -3.285156 12.464844 -3.683594 12.285156 -4.011719 L 12.28125 -4.015625 L 5.679688 -16.777344 L 6.238281 -17.066406 L 6.238281 -16.441406 L 1.667969 -16.441406 L 1.667969 -17.066406 L 2.292969 -17.066406 L 2.292969 0 L 1.667969 0 L 1.667969 -0.625 L 4.3125 -0.625 L 4.3125 0 L 3.6875 0 L 3.6875 -15.398438 L 4.898438 -15.617188 C 5.042969 -15.226562 5.222656 -14.816406 5.425781 -14.386719 L 6.105469 -12.976562 L 5.542969 -12.703125 L 6.097656 -12.992188 L 12.667969 -0.289062 L 12.113281 0 L 12.113281 -0.625 L 16.683594 -0.625 L 16.683594 0 L 16.054688 0 L 16.054688 -17.066406 L 16.683594 -17.066406 L 16.683594 -16.441406 Z M 14.039062 -16.441406 "/></g></g></g><g fill="#545454" fill-opacity="1"><g transform="translate(162.911138, 20.467235)"><g><path d="M 9.699219 1.0625 C 7.660156 1.0625 5.976562 0.628906 4.652344 -0.234375 C 3.320312 -1.097656 2.339844 -2.261719 1.710938 -3.730469 C 1.09375 -5.160156 0.785156 -6.765625 0.785156 -8.546875 C 0.785156 -10.332031 1.113281 -11.941406 1.765625 -13.375 C 2.433594 -14.839844 3.46875 -16.003906 4.867188 -16.867188 C 6.261719 -17.726562 8.027344 -18.15625 10.164062 -18.15625 C 12.949219 -18.15625 15.0625 -17.550781 16.507812 -16.339844 C 17.960938 -15.121094 18.808594 -13.382812 19.050781 -11.128906 L 19.121094 -10.433594 L 15.125 -10.433594 L 15.058594 -10.988281 C 14.910156 -12.238281 14.457031 -13.171875 13.707031 -13.785156 C 12.941406 -14.410156 11.726562 -14.722656 10.058594 -14.722656 C 8.191406 -14.722656 6.855469 -14.222656 6.058594 -13.222656 C 5.226562 -12.183594 4.808594 -10.625 4.808594 -8.546875 C 4.808594 -6.5 5.21875 -4.945312 6.039062 -3.886719 C 6.820312 -2.875 8.167969 -2.371094 10.085938 -2.371094 C 11.3125 -2.371094 12.28125 -2.566406 12.992188 -2.960938 C 13.6875 -3.34375 14.203125 -3.855469 14.539062 -4.488281 C 14.894531 -5.164062 15.121094 -5.890625 15.214844 -6.671875 L 15.835938 -6.59375 L 15.835938 -5.96875 L 7.996094 -5.96875 L 7.996094 -9.171875 L 19.027344 -9.171875 L 19.027344 0.625 L 15.390625 0.625 L 15.390625 -3.617188 L 16.015625 -3.617188 L 16.609375 -3.429688 C 16.171875 -2.058594 15.355469 -0.96875 14.160156 -0.152344 C 12.976562 0.65625 11.488281 1.0625 9.699219 1.0625 Z M 9.699219 -0.1875 C 11.230469 -0.1875 12.484375 -0.519531 13.453125 -1.183594 C 14.414062 -1.839844 15.070312 -2.714844 15.417969 -3.808594 L 16.640625 -3.617188 L 16.640625 0 L 16.015625 0 L 16.015625 -0.625 L 18.402344 -0.625 L 18.402344 0 L 17.777344 0 L 17.777344 -8.546875 L 18.402344 -8.546875 L 18.402344 -7.921875 L 8.625 -7.921875 L 8.625 -8.546875 L 9.25 -8.546875 L 9.25 -6.59375 L 8.625 -6.59375 L 8.625 -7.222656 L 16.539062 -7.222656 L 16.457031 -6.519531 C 16.34375 -5.589844 16.074219 -4.714844 15.644531 -3.902344 C 15.191406 -3.050781 14.511719 -2.371094 13.597656 -1.863281 C 12.699219 -1.367188 11.527344 -1.121094 10.085938 -1.121094 C 7.757812 -1.121094 6.082031 -1.785156 5.046875 -3.121094 C 4.054688 -4.40625 3.558594 -6.214844 3.558594 -8.546875 C 3.558594 -10.917969 4.066406 -12.738281 5.082031 -14.003906 C 6.128906 -15.316406 7.789062 -15.972656 10.058594 -15.972656 C 12.023438 -15.972656 13.5 -15.566406 14.496094 -14.753906 C 15.507812 -13.929688 16.109375 -12.722656 16.300781 -11.136719 L 15.679688 -11.0625 L 15.679688 -11.6875 L 18.425781 -11.6875 L 18.425781 -11.0625 L 17.804688 -10.996094 C 17.601562 -12.914062 16.898438 -14.378906 15.703125 -15.382812 C 14.492188 -16.394531 12.644531 -16.902344 10.164062 -16.902344 C 8.261719 -16.902344 6.714844 -16.535156 5.523438 -15.800781 C 4.339844 -15.074219 3.46875 -14.089844 2.90625 -12.855469 C 2.328125 -11.585938 2.039062 -10.148438 2.039062 -8.546875 C 2.039062 -6.9375 2.3125 -5.496094 2.859375 -4.226562 C 3.390625 -2.988281 4.214844 -2.007812 5.332031 -1.28125 C 6.453125 -0.554688 7.910156 -0.1875 9.699219 -0.1875 Z M 9.699219 -0.1875 "/></g></g></g><g fill="#ffffff" fill-opacity="1"><g transform="translate(0.304906, 20.467235)"><g><path d="M 14.046875 -17.078125 L 16.6875 -17.078125 L 16.6875 0 L 12.109375 0 L 5.546875 -12.703125 C 5.304688 -13.203125 5.078125 -13.671875 4.859375 -14.109375 C 4.648438 -14.554688 4.46875 -14.988281 4.3125 -15.40625 L 4.3125 0 L 1.671875 0 L 1.671875 -17.078125 L 6.234375 -17.078125 L 12.84375 -4.3125 C 13.03125 -3.96875 13.226562 -3.550781 13.4375 -3.0625 C 13.65625 -2.582031 13.859375 -2.117188 14.046875 -1.671875 Z M 14.046875 -17.078125 "/></g></g></g><g fill="#ffffff" fill-opacity="1"><g transform="translate(18.648775, 20.467235)"><g><path d="M 4.3125 -2.125 L 14.640625 -2.125 L 14.640625 0 L 1.671875 0 L 1.671875 -17.078125 L 14.5625 -17.078125 L 14.5625 -14.9375 L 4.3125 -14.9375 L 4.3125 -9.78125 L 13.78125 -9.78125 L 13.78125 -7.703125 L 4.3125 -7.703125 Z M 4.3125 -2.125 "/></g></g></g><g fill="#ffffff" fill-opacity="1"><g transform="translate(34.811903, 20.467235)"><g><path d="M 15.375 -17.078125 L 15.375 -14.9375 L 9.46875 -14.9375 L 9.46875 0 L 6.828125 0 L 6.828125 -14.9375 L 0.90625 -14.9375 L 0.90625 -17.078125 Z M 15.375 -17.078125 "/></g></g></g><g fill="#ffffff" fill-opacity="1"><g transform="translate(51.077658, 20.467235)"><g><path d="M 22.28125 -17.078125 L 24.921875 -17.078125 L 21.203125 0 L 16.6875 0 L 13.046875 -14.96875 L 9.390625 0 L 4.875 0 L 1.15625 -17.078125 L 3.828125 -17.078125 L 7.1875 -1.625 L 10.96875 -17.078125 L 15.140625 -17.078125 L 18.921875 -1.625 Z M 22.28125 -17.078125 "/></g></g></g><g fill="#ffffff" fill-opacity="1"><g transform="translate(77.143922, 20.467235)"><g><path d="M 10.0625 0.4375 C 8.03125 0.4375 6.375 0.0390625 5.09375 -0.75 C 3.820312 -1.550781 2.890625 -2.628906 2.296875 -3.984375 C 1.703125 -5.347656 1.40625 -6.867188 1.40625 -8.546875 C 1.40625 -10.203125 1.703125 -11.707031 2.296875 -13.0625 C 2.890625 -14.414062 3.820312 -15.5 5.09375 -16.3125 C 6.375 -17.125 8.03125 -17.53125 10.0625 -17.53125 C 11.582031 -17.53125 12.890625 -17.296875 13.984375 -16.828125 C 15.085938 -16.359375 15.984375 -15.710938 16.671875 -14.890625 C 17.367188 -14.066406 17.882812 -13.109375 18.21875 -12.015625 C 18.550781 -10.929688 18.71875 -9.773438 18.71875 -8.546875 C 18.71875 -6.890625 18.421875 -5.378906 17.828125 -4.015625 C 17.234375 -2.660156 16.300781 -1.578125 15.03125 -0.765625 C 13.757812 0.0351562 12.101562 0.4375 10.0625 0.4375 Z M 4.1875 -8.546875 C 4.1875 -6.304688 4.644531 -4.613281 5.5625 -3.46875 C 6.476562 -2.320312 7.976562 -1.75 10.0625 -1.75 C 12.15625 -1.75 13.65625 -2.320312 14.5625 -3.46875 C 15.476562 -4.613281 15.9375 -6.304688 15.9375 -8.546875 C 15.9375 -10.785156 15.476562 -12.476562 14.5625 -13.625 C 13.65625 -14.78125 12.15625 -15.359375 10.0625 -15.359375 C 7.976562 -15.359375 6.476562 -14.78125 5.5625 -13.625 C 4.644531 -12.476562 4.1875 -10.785156 4.1875 -8.546875 Z M 4.1875 -8.546875 "/></g></g></g><g fill="#ffffff" fill-opacity="1"><g transform="translate(97.258039, 20.467235)"><g><path d="M 14.765625 -4.421875 L 14.765625 -2.796875 C 14.765625 -2.109375 14.804688 -1.53125 14.890625 -1.0625 C 14.972656 -0.59375 15.050781 -0.238281 15.125 0 L 12.53125 0 C 12.457031 -0.21875 12.378906 -0.550781 12.296875 -1 C 12.222656 -1.445312 12.1875 -2.015625 12.1875 -2.703125 L 12.1875 -4.03125 C 12.1875 -5.257812 11.867188 -6.125 11.234375 -6.625 C 10.609375 -7.132812 9.738281 -7.390625 8.625 -7.390625 L 4.3125 -7.390625 L 4.3125 0 L 1.671875 0 L 1.671875 -17.078125 L 9.828125 -17.078125 C 11.609375 -17.078125 12.960938 -16.660156 13.890625 -15.828125 C 14.828125 -14.992188 15.296875 -13.867188 15.296875 -12.453125 C 15.296875 -11.285156 14.976562 -10.328125 14.34375 -9.578125 C 13.71875 -8.835938 12.925781 -8.347656 11.96875 -8.109375 C 12.550781 -7.921875 13.046875 -7.691406 13.453125 -7.421875 C 13.859375 -7.160156 14.175781 -6.796875 14.40625 -6.328125 C 14.644531 -5.859375 14.765625 -5.222656 14.765625 -4.421875 Z M 9.65625 -9.34375 C 10.75 -9.34375 11.5 -9.601562 11.90625 -10.125 C 12.320312 -10.644531 12.53125 -11.359375 12.53125 -12.265625 C 12.53125 -13.109375 12.289062 -13.765625 11.8125 -14.234375 C 11.34375 -14.703125 10.585938 -14.9375 9.546875 -14.9375 L 4.3125 -14.9375 L 4.3125 -9.34375 Z M 9.65625 -9.34375 "/></g></g></g><g fill="#ffffff" fill-opacity="1"><g transform="translate(114.088219, 20.467235)"><g><path d="M 9.21875 -9.890625 L 16.375 -0.125 L 16.375 0 L 13.171875 0 L 7.4375 -7.984375 L 4.3125 -4.671875 L 4.3125 0 L 1.671875 0 L 1.671875 -17.078125 L 4.3125 -17.078125 L 4.3125 -8.03125 L 12.53125 -17.078125 L 16 -17.078125 Z M 9.21875 -9.890625 "/></g></g></g><g fill="#ffffff" fill-opacity="1"><g transform="translate(131.611104, 20.467235)"><g><path d="M 11.296875 -14.9375 L 7.796875 -14.9375 L 7.796875 -2.125 L 11.296875 -2.125 L 11.296875 0 L 1.671875 0 L 1.671875 -2.125 L 5.15625 -2.125 L 5.15625 -14.9375 L 1.671875 -14.9375 L 1.671875 -17.078125 L 11.296875 -17.078125 Z M 11.296875 -14.9375 "/></g></g></g><g fill="#ffffff" fill-opacity="1"><g transform="translate(144.567269, 20.467235)"><g><path d="M 14.046875 -17.078125 L 16.6875 -17.078125 L 16.6875 0 L 12.109375 0 L 5.546875 -12.703125 C 5.304688 -13.203125 5.078125 -13.671875 4.859375 -14.109375 C 4.648438 -14.554688 4.46875 -14.988281 4.3125 -15.40625 L 4.3125 0 L 1.671875 0 L 1.671875 -17.078125 L 6.234375 -17.078125 L 12.84375 -4.3125 C 13.03125 -3.96875 13.226562 -3.550781 13.4375 -3.0625 C 13.65625 -2.582031 13.859375 -2.117188 14.046875 -1.671875 Z M 14.046875 -17.078125 "/></g></g></g><g fill="#ffffff" fill-opacity="1"><g transform="translate(162.911138, 20.467235)"><g><path d="M 9.703125 0.4375 C 7.785156 0.4375 6.210938 0.0390625 4.984375 -0.75 C 3.765625 -1.550781 2.863281 -2.625 2.28125 -3.96875 C 1.695312 -5.320312 1.40625 -6.847656 1.40625 -8.546875 C 1.40625 -10.242188 1.710938 -11.765625 2.328125 -13.109375 C 2.953125 -14.460938 3.910156 -15.535156 5.203125 -16.328125 C 6.492188 -17.128906 8.148438 -17.53125 10.171875 -17.53125 C 12.804688 -17.53125 14.785156 -16.972656 16.109375 -15.859375 C 17.429688 -14.753906 18.207031 -13.15625 18.4375 -11.0625 L 15.6875 -11.0625 C 15.507812 -12.488281 14.976562 -13.5625 14.09375 -14.28125 C 13.21875 -15 11.875 -15.359375 10.0625 -15.359375 C 7.988281 -15.359375 6.488281 -14.78125 5.5625 -13.625 C 4.644531 -12.46875 4.1875 -10.773438 4.1875 -8.546875 C 4.1875 -6.359375 4.640625 -4.675781 5.546875 -3.5 C 6.453125 -2.332031 7.96875 -1.75 10.09375 -1.75 C 11.425781 -1.75 12.492188 -1.96875 13.296875 -2.40625 C 14.097656 -2.851562 14.695312 -3.445312 15.09375 -4.1875 C 15.488281 -4.9375 15.738281 -5.738281 15.84375 -6.59375 L 8.625 -6.59375 L 8.625 -8.546875 L 18.40625 -8.546875 L 18.40625 0 L 16.015625 0 L 16.015625 -3.625 C 15.617188 -2.382812 14.878906 -1.394531 13.796875 -0.65625 C 12.722656 0.0703125 11.359375 0.4375 9.703125 0.4375 Z M 9.703125 0.4375 "/></g></g></g></g></g></svg>